<?xml version="1.0" encoding="UTF-8" standalone="no"?>
<svg width="128px" height="128px" viewBox="0 0 128 128" version="1.1" xmlns="http://www.w3.org/2000/svg" xmlns:xlink="http://www.w3.org/1999/xlink" xmlns:sketch="http://www.bohemiancoding.com/sketch/ns">
    <!-- Generator: Sketch 3.1.1 (8761) - http://www.bohemiancoding.com/sketch -->
    <title>Accommodation icon 3_ico</title>
    <desc>Created with Sketch.</desc>
    <defs></defs>
    <g id="Page-1" stroke="none" stroke-width="1" fill="none" fill-rule="evenodd" sketch:type="MSPage">
        <g id="Mobile-Portrait" sketch:type="MSArtboardGroup" transform="translate(-96.000000, -5214.000000)">
            <g id="3-points-2" sketch:type="MSLayerGroup" transform="translate(23.000000, 4446.000000)">
                <g id="無料" transform="translate(0.000000, 768.000000)" sketch:type="MSShapeGroup">
                    <g id="Accommodation-icon-3" transform="translate(73.000000, 0.000000)">
                        <circle id="Oval-3" fill="#CFF2A3" cx="64" cy="64" r="64"></circle>
                        <path d="M63.6121212,113.260606 C91.0322222,113.260606 113.260606,91.0322222 113.260606,63.6121212 C113.260606,36.1920202 91.0322222,13.9636364 63.6121212,13.9636364 C36.1920202,13.9636364 13.9636364,36.1920202 13.9636364,63.6121212 C13.9636364,91.0322222 36.1920202,113.260606 63.6121212,113.260606 Z" id="Oval-3" fill="#B4E16D"></path>
                        <path d="M87.5272727,64.3295146 L63.6121212,40.3393939 L39.6969697,64.3295146 C38.4848485,65.5454355 38.4848485,67.5152275 39.6969697,68.7311485 C40.9090909,69.9470694 42.8727273,69.9470694 44.0848485,68.7311485 L44.9939394,67.8192078 L44.9939394,83.0060606 L82.230303,83.0060606 L82.230303,67.8192078 L83.1393939,68.7311485 C83.7454545,69.339109 84.5394424,69.6430892 85.3333333,69.6430892 C86.1272242,69.6430892 86.9212121,69.339109 87.5272727,68.7311485 C88.7393939,67.5152275 88.7393939,65.5454355 87.5272727,64.3295146 L87.5272727,64.3295146 Z M79.1272727,79.9030303 L69.8181818,79.9030303 L69.8181818,67.3387637 L57.4060606,67.3387637 L57.4060606,79.9030303 L48.0969697,79.9030303 L48.0969697,64.5780606 L63.6121212,48.8727273 L79.1272727,64.5780606 L79.1272727,79.9030303 L79.1272727,79.9030303 Z" id="Shape" fill="#FFFFFF"></path>
                    </g>
                </g>
            </g>
        </g>
    </g>
</svg>