<?xml version="1.0" encoding="UTF-8" standalone="no"?>
<svg width="128px" height="128px" viewBox="0 0 128 128" version="1.1" xmlns="http://www.w3.org/2000/svg" xmlns:xlink="http://www.w3.org/1999/xlink" xmlns:sketch="http://www.bohemiancoding.com/sketch/ns">
    <!-- Generator: Sketch 3.1.1 (8761) - http://www.bohemiancoding.com/sketch -->
    <title>free_ico </title>
    <desc>Created with Sketch.</desc>
    <defs></defs>
    <g id="Page-1" stroke="none" stroke-width="1" fill="none" fill-rule="evenodd" sketch:type="MSPage">
        <g id="Mobile-Portrait" sketch:type="MSArtboardGroup" transform="translate(-96.000000, -1223.000000)">
            <g id="無料" sketch:type="MSLayerGroup" transform="translate(33.000000, 1223.000000)">
                <g id="free" transform="translate(63.000000, 0.000000)" sketch:type="MSShapeGroup">
                    <circle id="Oval-3" fill="#CFF2A3" cx="64" cy="64" r="64"></circle>
                    <path d="M25.072,56.696 L22.864,56.696 C20.416,56.696 19.6,56.648 18.112,56.456 L18.112,63.656 C19.6,63.464 20.56,63.416 22.864,63.416 L24.544,63.416 L24.544,67.976 L23.584,67.976 C21.232,67.976 20.128,67.928 18.832,67.736 L18.832,74.84 C20.032,74.648 20.992,74.6 22.864,74.6 L23.248,74.6 C21.616,78.344 20.272,80.36 17.584,83.048 L23.488,87.56 C26.368,84.2 27.664,81.944 29.632,77.096 L24.544,74.6 L54.736,74.6 L50.32,76.712 C52.912,80.552 54.256,83.048 56.032,87.272 L62.56,83.24 C59.488,77.912 58.96,77.144 56.848,74.6 C59.2,74.6 60.112,74.648 61.36,74.84 L61.36,67.784 C60.304,67.928 59.248,67.976 56.8,67.976 L56.416,67.976 L56.416,63.416 L57.712,63.416 C60.064,63.416 61.024,63.464 62.464,63.656 L62.464,56.456 C60.976,56.648 60.16,56.696 57.712,56.696 L56.416,56.696 L56.416,52.28 C58.192,52.328 59.2,52.376 60.688,52.568 L60.688,45.368 C59.056,45.56 57.424,45.656 54.544,45.656 L32.272,45.656 C32.704,45.032 33.136,44.408 33.424,43.88 C33.904,43.064 33.904,43.064 34.288,42.584 L26.608,41.336 C26.32,42.056 25.984,42.728 25.504,43.448 C23.632,46.28 21.136,48.632 17.056,51.368 C19.024,52.952 20.128,54.248 21.664,56.504 C23.44,55.16 24.064,54.68 25.072,53.768 L25.072,56.696 Z M31.072,52.28 L33.28,52.28 L33.28,56.696 L31.072,56.696 L31.072,52.28 Z M39.376,52.28 L41.632,52.28 L41.632,56.696 L39.376,56.696 L39.376,52.28 Z M31.072,63.416 L33.28,63.416 L33.28,67.976 L31.072,67.976 L31.072,63.416 Z M39.376,63.416 L41.632,63.416 L41.632,67.976 L39.376,67.976 L39.376,63.416 Z M47.68,67.976 L47.68,63.416 L49.984,63.416 L49.984,67.976 L47.68,67.976 Z M47.68,56.696 L47.68,52.28 L49.984,52.28 L49.984,56.696 L47.68,56.696 Z M49.936,85.736 C49.216,81.896 48.544,79.448 47.152,75.272 L40.48,76.664 C41.44,80.072 41.872,82.52 42.544,87.224 L49.936,85.736 Z M38.608,86.84 C38.512,83.048 38.272,80.648 37.504,75.704 L30.832,76.328 C31.12,79.208 31.264,81.608 31.264,84.776 C31.264,85.688 31.264,86.072 31.168,87.368 L38.608,86.84 Z M85.984,79.736 C86.992,79.4 87.904,79.208 90.64,78.632 L99.232,76.856 L99.232,81.32 C99.232,84.488 99.184,85.64 98.944,87.464 L106.864,87.464 C106.624,85.688 106.576,84.488 106.576,81.368 L106.576,75.368 C108.592,74.936 109.84,74.744 110.944,74.6 L110.464,67.112 C109.024,67.592 108.112,67.832 106.576,68.168 L106.576,48.344 C106.576,45.272 106.624,43.976 106.864,42.296 L98.944,42.296 C99.184,43.976 99.232,45.272 99.232,48.344 L99.232,50.888 C97.168,48.872 95.536,47.576 91.84,45.032 L87.28,50.072 C91.312,53.048 92.416,54.008 95.488,57.176 L99.232,52.568 L99.232,69.656 L89.968,71.576 C88.432,71.864 86.656,72.104 85.6,72.152 C85.936,71.384 86.08,71.048 86.56,69.992 C84.112,68.168 82.384,66.488 80.944,64.472 L82.528,64.472 C84.4,64.472 85.264,64.52 86.464,64.712 L86.464,62.408 C89.2,64.424 91.024,66.056 94.048,69.224 L98.464,63.8 C95.872,61.16 93.904,59.528 90.304,56.984 L86.464,61.208 L86.464,57.656 C85.456,57.848 84.736,57.896 82.72,57.896 L80.464,57.896 L80.464,55.112 L84.16,57.32 C85.648,54.344 86.656,51.416 87.904,46.904 L82.912,44.504 C82.192,48.104 81.376,51.128 80.464,53.432 L80.464,46.472 C80.464,44.408 80.512,43.352 80.656,42.248 L73.216,42.248 C73.36,43.448 73.408,44.504 73.408,46.52 L73.408,57.896 L70.72,57.896 C68.368,57.896 67.36,57.848 66.256,57.656 L66.256,64.712 C67.552,64.52 68.512,64.472 70.768,64.472 L72.592,64.472 C70.912,68.648 68.416,72.248 65.44,74.984 C66.832,77.384 67.696,79.4 68.56,82.232 C70.576,80.024 71.584,78.44 73.552,74.36 C73.456,75.512 73.456,76.568 73.456,78.296 L73.456,82.616 C73.456,84.68 73.36,86.024 73.168,87.464 L80.704,87.464 C80.512,86.168 80.464,85.064 80.464,82.808 L80.464,75.896 C80.464,74.36 80.464,74.216 80.32,72.152 C81.568,74.216 82.48,75.368 83.968,76.856 C84.496,75.08 84.736,74.312 85.264,72.872 L85.984,79.736 Z M65.824,47 C67.072,50.36 67.696,52.856 68.416,57.224 L73.36,54.728 C72.688,50.984 72.064,48.728 70.672,44.456 L65.824,47 Z" id="無料-2" fill="#77B83E"></path>
                </g>
            </g>
        </g>
    </g>
</svg>