<?xml version="1.0" encoding="UTF-8" standalone="no"?>
<svg width="128px" height="128px" viewBox="0 0 128 128" version="1.1" xmlns="http://www.w3.org/2000/svg" xmlns:xlink="http://www.w3.org/1999/xlink" xmlns:sketch="http://www.bohemiancoding.com/sketch/ns">
    <!-- Generator: Sketch 3.1.1 (8761) - http://www.bohemiancoding.com/sketch -->
    <title>Japan icon 3_ico</title>
    <desc>Created with Sketch.</desc>
    <defs></defs>
    <g id="Page-1" stroke="none" stroke-width="1" fill="none" fill-rule="evenodd" sketch:type="MSPage">
        <g id="Mobile-Portrait" sketch:type="MSArtboardGroup" transform="translate(-96.000000, -4446.000000)">
            <g id="3-points-2" sketch:type="MSLayerGroup" transform="translate(23.000000, 4446.000000)">
                <g id="Based-in-japan" transform="translate(10.000000, 0.000000)" sketch:type="MSShapeGroup">
                    <g id="Japan-icon-3" transform="translate(63.000000, 0.000000)">
                        <circle id="Oval-3" fill="#F9D88E" cx="64" cy="64" r="64"></circle>
                        <circle id="Oval-3" fill="#D0011B" cx="64.3878788" cy="63.6121212" r="49.6484848"></circle>
                        <path d="M98.4007674,43.7529376 C97.9748489,43.5398575 97.5952258,44.3605709 97.2554881,43.8296464 C96.9136136,43.2983667 96.908628,41.5766796 97.1215873,41.1977521 C97.3352588,40.8191798 98.0820407,40.3507588 98.1030518,39.5644932 C98.1240628,38.7782277 97.7618896,38.7782277 97.2715134,39.2885545 C96.7807812,39.7985262 95.9923333,40.8390673 94.883022,40.5421757 C93.774779,40.2452841 93.0283532,39.1827247 92.4745878,39.1827247 C91.9211786,39.1827247 91.7929757,39.3958048 91.4304464,38.7583402 C91.0675609,38.1205205 90.7271109,37.6957808 90.279113,37.3342549 C89.8314712,36.9723739 88.8293517,35.1864076 88.5953814,34.421095 C88.3603427,33.6557823 87.5259555,31.784584 86.8454117,31.8062471 C86.165224,31.8282654 86.756738,32.529654 86.4608029,32.5506069 C86.165224,32.5715598 85.9301853,32.1461099 85.6744918,32.5079909 C85.4184421,32.8695168 85.098647,34.0393265 85.5252778,34.2520514 C85.9511964,34.4640661 85.8450729,36.0167097 85.4184421,36.8029753 C84.9918113,37.5892408 85.2475048,38.7998908 84.4594131,39.4167577 C83.670609,40.0336246 83.7347105,40.4324395 83.5637733,41.115006 C83.3928361,41.7975726 83.0951204,42.5003817 82.6474786,42.3934866 C82.1998367,42.2869465 82.0499106,41.8835149 81.7091045,41.8835149 C81.3682984,41.8835149 81.1763502,42.1970978 80.8565551,41.7638349 C80.5367601,41.3305721 80.3230886,41.500681 80.1101293,41.564605 C79.8975261,41.628529 79.1297331,41.9900549 79.5342845,42.5849035 C79.9391921,43.1801072 79.8113453,43.2845165 79.299602,43.6669952 C78.7878587,44.0498291 78.2743348,44.416682 77.8708518,44.3907573 C77.8708518,44.3907573 76.8042748,44.2202932 76.8252858,44.73062 C76.8473652,45.2409469 77.1871029,46.0279227 77.3480688,46.4956335 C77.5090347,46.962634 77.9135861,47.7918707 77.5731361,48.3021975 C77.2312617,48.8121692 76.5275701,49.5995001 76.9114666,49.982334 C77.295007,50.3651679 77.7426489,50.7476467 78.1486247,49.982334 C78.5524639,49.2170214 79.192054,48.6630131 79.5755944,49.0035861 C79.9594909,49.3445143 80.3861217,49.9173446 80.9185199,49.7053299 C81.4523425,49.4933152 81.4943646,49.1530973 80.9185199,48.5156327 C80.3430312,47.8774578 79.1336504,47.1750038 79.0677684,46.5801552 C78.9997496,45.9853066 79.3195447,44.9216819 79.7892659,45.3684398 C80.2589871,45.8148426 81.1742134,46.9409708 81.6859567,46.6440793 C82.1977,46.3468325 83.1150631,45.6024727 84.0107029,45.9213826 C84.9056304,46.2402925 86.3988382,48.4517087 87.6349279,48.9620355 C88.8710177,49.4720072 89.1270674,48.715928 90.1501978,47.3934109 C91.1736844,46.0708938 91.9201103,45.4099904 93.1562,45.5168856 C94.3933581,45.6234256 94.5212049,45.7928243 95.3096528,45.5168856 C96.0984568,45.2409469 96.5891891,45.3684398 97.3131794,44.985961 C98.0389503,44.6031271 98.8273982,43.9663728 98.4007674,43.7529376 Z M50.8862093,84.1641928 C50.6185663,84.0079021 50.5814504,83.6953207 50.8058483,83.2484561 C51.0292246,82.8012184 50.7448965,82.4677485 50.4387756,82.444249 C50.1329952,82.4214954 50.0921337,82.0428914 49.5415247,81.6635414 C48.9912563,81.2845644 48.3184033,81.5065047 48.1151172,81.6635414 C47.9104691,81.8205782 47.3602006,81.8866007 47.0142398,81.8645932 C46.6662358,81.8425857 46.9321762,82.2215627 47.1364838,82.6904348 C47.3390888,83.15968 45.8112085,83.1145459 45.3419821,83.1145459 C44.8737771,83.1145459 44.5472255,82.2215627 44.0987703,82.1991822 C43.6509962,82.1775476 43.3452158,82.8463525 42.6311607,83.7169552 C41.9174462,84.5883039 41.6116658,83.6733131 40.6544847,84.4536477 C39.69492,85.2351012 41.1836414,85.057176 41.7138196,85.1239446 C42.2443383,85.1907132 41.4083798,86.7092322 41.4083798,86.7092322 C41.1625296,87.2135402 41.6116658,87.7368716 41.9174462,88.3948592 C42.2232266,89.0535929 42.6311607,89.143488 43.0796159,89.2102566 C43.5287521,89.2770252 44.2823066,87.5358198 45.1996478,86.3746433 C46.1169889,85.2145857 47.1977761,85.9061441 47.4214929,86.3966508 C47.6469123,86.8879034 47.8294271,87.2012309 48.1352074,87.2012309 C48.4409878,87.2012309 49.4192807,86.1288304 49.7250611,85.7050924 C50.0308414,85.2806083 50.3366218,85.0355415 50.8862093,85.0131609 C51.4344347,84.9911534 51.1514686,84.3201105 50.8862093,84.1641928 Z M38.9215173,86.2512728 C39.1076891,86.0186149 39.4800326,86.1446526 39.4392752,85.8495054 C39.3974815,85.5540051 38.8389662,85.5321162 38.8389662,85.5321162 C38.8389662,85.5321162 37.9087982,85.3432361 38.5705887,84.9834813 C39.2316885,84.6237264 39.3974815,84.13864 39.1912764,83.7788851 C38.9836897,83.4191303 38.1229476,83.4787952 38.0124189,83.5253974 C38.0124189,83.5253974 37.4134915,83.8434927 37.2273198,83.356641 C37.041148,82.8704954 36.6691499,81.4335944 36.1106346,81.4547772 C35.5524647,81.475607 35.2208787,81.5183256 34.9321225,81.7926431 C34.6412938,82.0669606 34.3117802,82.7437515 33.9394367,82.7437515 C33.5674385,82.7437515 33.608196,82.6593733 33.3812668,82.4058856 C33.1526106,82.1520449 32.6776826,82.4263623 32.7395096,82.8704954 C32.8020274,83.3139223 32.4082689,83.2726158 32.3675115,83.1663487 C32.3270994,83.0607877 32.1195127,82.6787909 31.9740984,82.7010329 C31.8307565,82.7229218 31.7064117,83.1448128 31.52024,83.25108 C31.3344136,83.356641 31.0232063,83.5688222 30.981758,83.4201895 C30.9406552,83.2715567 30.590072,83.0614938 30.4657272,83.2302502 C30.3417278,83.3983005 30.2381072,83.7997149 30.4657272,84.0962743 C30.6926564,84.3921276 31.2297568,84.8150779 31.2508263,85.2161392 C31.2722412,85.6179066 31.2722412,86.0821633 31.1268269,85.8706882 C30.981758,85.6602722 30.8370345,84.9418217 30.5472421,84.9418217 C30.2584859,84.9418217 30.176971,85.2588579 30.3313658,85.7231146 C30.4854151,86.1884304 30.5472421,86.4627479 30.3610703,86.6318574 C30.175244,86.8013199 30.2799008,87.4989406 30.7140714,87.2454529 C31.1482419,86.9916122 31.7057209,86.2936384 31.9740984,86.4419181 C32.2435121,86.5905509 31.8915473,87.3930266 32.1602702,87.5197704 C32.4296838,87.6465142 32.9878537,87.2655766 33.0092687,86.8225027 C33.0286112,86.3787227 32.9256813,86.5905509 32.7184401,86.1672476 C32.5129258,85.7442974 32.3270994,85.0685656 32.8230969,85.0685656 C33.3190944,85.0685656 33.6285747,85.0883362 33.6489535,85.9345897 C33.6703684,86.7808432 33.9591246,87.7736111 33.608196,88.1534896 C33.2572674,88.5340742 32.4497172,89.1462576 32.0155467,89.5268422 C31.5813762,89.9074268 30.6712415,90.8158165 31.2297568,91.556156 C31.7879266,92.2961423 31.9740984,92.2333 31.8093416,92.5284472 C31.6435485,92.8239475 31.0649999,92.5704598 30.7548288,92.8239475 C30.4446577,93.0774352 30.650172,93.7965918 31.3537561,94.0709092 C32.0573403,94.3459328 33.0904382,94.3459328 32.6566131,93.7538731 C32.2220972,93.1628725 32.3053391,92.9517505 32.5536832,92.6555441 C32.8020274,92.3589847 33.5867811,91.9155577 33.5045754,92.2961423 C33.4220242,92.6760208 33.0704048,92.6135315 33.0704048,92.9090318 C33.0704048,93.204179 33.0082325,94.663322 32.8020274,94.9383455 C32.5944407,95.21231 32.9878537,95.7404682 33.6285747,95.1491146 C34.2692957,94.557761 34.6202243,94.0702031 35.0136374,94.091739 C35.4070504,94.1136279 36.0263565,94.4087751 36.0681501,93.6910307 C36.1099438,92.9725802 35.9845628,91.6200574 37.0608359,90.4998395 C38.1364182,89.3792686 39.5418596,87.9836741 39.5632745,87.3707846 C39.5836533,86.7586012 38.735691,86.4846368 38.9215173,86.2512728 Z M81.333945,54.7257943 C81.1451542,54.2840066 81.5448433,52.7676476 81.6080076,51.9051767 C81.6711718,51.042354 81.1451542,51.3364101 80.7040574,51.3149539 C80.2626097,51.2931459 79.9064337,50.7679954 79.6323712,50.472884 C79.3590105,50.1777726 79.213031,51.2942011 79.1916253,51.9713041 C79.1695179,52.6480554 79.3590105,52.8731701 79.6958863,52.8527691 C80.0324113,52.8316646 80.1583888,52.4102779 80.577729,52.4102779 C80.9974201,52.4102779 80.830035,53.0201982 80.577729,53.526003 C80.325774,54.0311042 79.6737789,53.8418671 79.1502177,53.8207626 C78.6242001,53.8000098 78.4568149,53.2523478 78.4568149,52.6413723 C78.4568149,52.0303968 77.972556,52.0522047 77.6156781,51.9888912 C77.2595021,51.9255777 77.1963379,51.9888912 77.1749323,52.9364837 C77.1531757,53.8840761 76.607507,53.9677907 75.863222,54.3895291 C75.1185861,54.8109158 75.5361717,55.1682855 75.7881268,55.9480971 C76.0404327,56.7279087 75.5775794,56.7898153 75.5775794,56.7898153 C75.3235189,56.7433854 74.8873349,57.382852 74.6981931,57.8467995 C74.5090514,58.3110987 75.2024541,58.2467299 75.3705411,58.8151447 C75.5382772,59.3839112 74.9076878,60.6048071 74.8883876,61.1732219 C74.866631,61.7419884 74.7620592,62.6262673 73.8170523,63.5745632 C72.8716945,64.5232109 72.4302468,65.3199062 72.1358314,66.0986625 C71.8414159,66.8774189 71.316802,67.2573001 70.7072673,67.2358438 C70.0977326,67.2140358 68.9642859,69.1317322 68.3536984,69.8264223 C67.7452165,70.5214642 65.9383689,70.8587846 65.2242624,70.8587846 C64.509454,70.8587846 64.6571881,70.4169969 63.9848401,71.3860456 C63.3121412,72.355446 63.0815918,71.9755649 62.7664725,71.5123209 C62.4513532,71.0494286 62.8078802,70.7543173 63.0394823,70.7117565 C63.2707335,70.6695475 63.1229994,70.2907215 62.7036592,70.0170664 C62.2832662,69.743763 63.0394823,69.743763 63.2914373,69.743763 C63.5433924,69.743763 63.7749945,69.7012023 64.1315214,68.6540669 C64.4876974,67.6069315 62.8710444,68.4173446 62.1569378,68.5432682 C61.4431822,68.6698952 61.5474031,69.3427773 61.5270502,70.5650802 C61.5063464,71.7866795 58.8376582,74.2917847 58.1649593,74.5861926 C57.4926113,74.8798971 57.8705439,75.7005107 57.8705439,76.374448 C57.8705439,77.0487371 55.8963112,76.4585143 55.0562271,76.4170088 C54.2154412,76.3755033 54.8881401,75.6164444 54.8881401,75.2376185 C54.8881401,74.8587925 54.1740335,74.7321655 53.6904763,75.321333 C53.2072701,75.9108523 53.0398849,75.5327299 52.7875789,75.5109219 C52.5356239,75.4894656 52.1987481,75.6371972 49.9929133,75.6164444 C47.7870784,75.5956917 47.0940266,74.9010016 46.3792182,74.6058902 C45.6644098,74.3107788 44.4885026,74.0796844 43.6477167,75.1317442 C42.8076326,76.1841557 40.0336708,77.8697025 39.1514772,78.2485285 C38.2689327,78.6277061 37.1565407,78.4578148 36.6519288,78.7318217 C36.1480187,79.0051251 36.7357968,80.5003796 37.303222,80.8369965 C37.8702963,81.1736134 38.7103804,81.1746686 39.4034323,81.1746686 C40.096835,81.1746686 40.517228,81.8901115 41.021489,81.8479025 C41.5257499,81.8053417 41.3994215,81.2597902 41.4622348,80.7543372 C41.5257499,80.2488842 42.2816151,80.2488842 42.6806024,80.3751595 C43.0792388,80.5014348 43.2901371,80.9857833 43.6887735,80.9653823 C44.0877608,80.9442778 44.4874499,80.2910932 44.7818653,80.1644661 C45.075579,80.0385426 45.327534,80.4599293 45.6847627,80.5228911 C46.0423424,80.5862046 46.2314841,80.4381213 46.5673072,80.1855706 C46.9031303,79.9326683 47.2178986,80.1440651 47.7014558,80.3969675 C48.185013,80.6495181 48.6261098,80.4391765 49.0672066,80.3551102 C49.5086543,80.2710439 49.7802604,79.892218 50.1171362,79.892218 C50.454012,79.892218 50.8319446,79.7441347 51.5446475,79.5545458 C52.2598068,79.3653087 53.2048137,80.4817373 53.7504823,80.5450508 C54.2972037,80.6076608 54.2982565,80.2495877 54.4873982,80.50249 C54.676189,80.7546889 54.4656416,81.2186364 53.7308313,81.5760061 C52.995319,81.9337275 53.1005927,82.3769222 53.0574305,82.945337 C53.0160229,83.5141035 52.5531695,83.9558912 52.5531695,84.482097 C52.5531695,85.0083027 53.8354031,85.9354942 54.4024774,86.6094315 C54.9695517,87.2830171 55.4738127,86.6094315 56.041238,85.7881143 C56.6083123,84.9664455 57.9751157,84.14548 58.394456,83.7663024 C58.8141471,83.3874764 59.5503611,83.7877586 60.1588431,83.4722462 C60.767676,83.1563821 60.0546221,82.2721031 59.7395029,82.103267 C59.4247345,81.9347827 59.2138362,81.4511377 59.4247345,81.1764274 C59.6342292,80.9020687 59.7177463,80.2921484 60.0960298,80.2509946 C60.4743133,80.2087856 60.3065772,80.9868385 60.4329056,81.3245107 C60.5588831,81.6618311 60.9368157,81.0086465 60.9785743,80.8398104 C61.019631,80.6713261 61.3565068,80.6502216 61.5452976,81.050152 C61.7344394,81.4497307 62.3018646,81.4511377 61.776198,81.7877546 C61.2508822,82.1240198 61.1673651,82.2295424 61.5042409,82.3769222 C61.8397131,82.5239503 62.1127229,82.2721031 62.4278421,82.0192008 C62.7429614,81.7666501 63.120894,81.9973928 63.6321732,81.9973928 C64.1431015,81.9973928 64.9902039,83.0716123 65.3267288,83.0930685 C65.6636046,83.1152283 67.2806086,81.3245107 67.9519038,80.9456847 C68.6246027,80.566507 68.2887796,81.3245107 68.1213945,81.8714692 C67.9529566,82.4184277 68.0582303,83.0301067 68.6670631,82.8408696 C69.2755451,82.6512808 69.760155,81.6185668 69.760155,80.903124 C69.760155,80.1873294 70.1359821,79.9129707 70.556726,79.892218 C70.9771189,79.8714652 71.2497778,80.0392461 71.7115784,80.375863 C72.1744317,80.7124799 72.0898619,79.7866954 72.0898619,79.3019952 C72.0898619,78.817295 72.5309586,78.5865523 72.9306478,78.2910892 C73.3303369,77.9963296 73.6444034,78.33365 73.7075676,78.7553884 C73.7707319,79.1767751 72.5941229,80.6713261 72.3842773,81.2601419 C72.1744317,81.8496612 72.6783418,81.7655949 73.2664709,81.555605 C73.854249,81.3452634 75.1568355,79.9555315 75.4417763,79.4286223 C75.7260153,78.9013613 76.1446537,78.96573 76.7327827,78.8183502 C77.3205609,78.6713221 76.964034,78.2284792 76.6489147,77.8489497 C76.3337954,77.4701238 75.7881268,75.9530613 75.9979723,75.321333 C76.2078179,74.6896047 77.4051307,73.2998728 78.1613468,71.8886846 C78.9175628,70.4771447 78.0571258,68.3934262 78.0146654,67.6354225 C77.972556,66.8774189 79.1695179,66.3709107 79.5270975,66.0128375 C79.8846772,65.6544126 79.9478414,65.9920848 80.3464778,66.6663738 C80.7454651,67.3403112 80.7668707,65.2340812 80.7454651,64.7078754 C80.725814,64.1820214 81.5016811,63.5284851 82.2371933,62.8334432 C82.9727056,62.1384014 83.1400907,61.4219033 82.9098923,59.2108542 C82.6793429,57.0001569 81.5234377,55.1682855 81.333945,54.7257943 Z" id="Fill-1" fill="#FFFFFF"></path>
                    </g>
                </g>
            </g>
        </g>
    </g>
</svg>