<?xml version="1.0" encoding="UTF-8" standalone="no"?>
<svg width="274px" height="92px" viewBox="0 0 274 92" version="1.1" xmlns="http://www.w3.org/2000/svg" xmlns:xlink="http://www.w3.org/1999/xlink" xmlns:sketch="http://www.bohemiancoding.com/sketch/ns">
    <!-- Generator: Sketch 3.0.4 (8054) - http://www.bohemiancoding.com/sketch -->
    <title>logo_ico</title>
    <desc>Created with Sketch.</desc>
    <defs></defs>
    <g id="Main-Page" stroke="none" stroke-width="1" fill="none" fill-rule="evenodd" sketch:type="MSPage">
        <g id="Desktop" sketch:type="MSArtboardGroup" transform="translate(-42.000000, -86.000000)" fill="#FFFFFF">
            <g id="Top-Menu" sketch:type="MSLayerGroup" transform="translate(0.000000, 70.000000)">
                <g id="logo" transform="translate(42.000000, 17.000000)" sketch:type="MSShapeGroup">
                    <g id="Group">
                        <path d="M93.9785854,44.9822222 C87.1835488,39.0144444 78.8981098,36.0722222 69.123378,36.1511111 L61.8522561,36.21 L61.8522561,82.16 L77.35,82.16 L77.35,53.4566667 C81.9177561,55.7644444 85.6454268,59.1177778 88.5241341,63.5144444 C91.405061,67.91 93.225061,72.8911111 93.9785854,78.4622222 L93.9785854,82.16 L109.47522,82.16 L109.47522,36.1511111 L93.9785854,36.1511111 L93.9785854,44.9822222 L93.9785854,44.9822222 Z" id="Shape"></path>
                        <rect id="Rectangle-path" x="112.085366" y="36.6666667" width="15.8550854" height="46.0088889"></rect>
                        <path d="M153.229573,45.3422222 L147.451073,45.3422222 L147.451073,36.1511111 L131.593768,36.1511111 L131.593768,82.16 L147.451073,82.16 L147.451073,58.59 L153.229573,58.59 L153.229573,82.16 L169.086878,82.16 L169.086878,36.1511111 L153.229573,36.1511111 L153.229573,45.3422222 Z" id="Shape"></path>
                        <path d="M197.396756,33.8233333 C190.126744,33.8233333 183.906561,36.2922222 178.740646,41.2244444 C173.575841,46.1555556 170.992329,52.1033333 170.992329,59.0677778 C170.992329,66.03 173.575841,71.9777778 178.740646,76.9111111 C183.905451,81.8444444 190.126744,84.31 197.396756,84.31 C204.667878,84.31 210.885841,81.8433333 216.051756,76.9111111 C221.21878,71.9788889 223.802293,66.03 223.802293,59.0677778 C223.802293,52.1033333 221.21878,46.1566667 216.051756,41.2244444 C210.885841,36.2922222 204.666768,33.8233333 197.396756,33.8233333 L197.396756,33.8233333 Z M202.865634,64.1788889 C201.358585,65.65 199.535256,66.3855556 197.397866,66.3855556 C195.258256,66.3855556 193.436037,65.65 191.926768,64.1788889 C190.420829,62.7077778 189.665085,60.9388889 189.665085,58.8755556 C189.665085,56.81 190.420829,55.0433333 191.926768,53.5711111 C193.434927,52.1011111 195.258256,51.3655556 197.397866,51.3655556 C199.535256,51.3655556 201.357476,52.1011111 202.865634,53.5711111 C204.371573,55.0433333 205.128427,56.81 205.128427,58.8755556 C205.128427,60.9388889 204.372683,62.7077778 202.865634,64.1788889 L202.865634,64.1788889 Z" id="Shape"></path>
                        <path d="M257.775256,36.1511111 L257.775256,44.9822222 C250.978,39.0144444 242.693671,36.0722222 232.918939,36.1511111 L225.648927,36.21 L225.648927,82.16 L241.144451,82.16 L241.144451,53.4566667 C245.717756,55.7644444 249.442098,59.1177778 252.321915,63.5144444 C255.202841,67.91 257.022841,72.8911111 257.775256,78.4622222 L257.775256,82.16 L273.273,82.16 L273.273,36.1511111 L257.775256,36.1511111 L257.775256,36.1511111 Z" id="Shape"></path>
                        <path d="M119.498537,30.96 L119.498537,22.5822222 L112.924341,22.5822222 L112.924341,25.7044444 L115.688744,25.7044444 L115.688744,27.0733333 L111.969951,27.0733333 L111.901146,26.9477778 C111.420622,26.0633333 111.178695,25.1188889 111.178695,24.1411111 C111.178695,23.1711111 111.421732,22.2255556 111.901146,21.3411111 L111.969951,21.2188889 L119.499646,21.2188889 L119.499646,17.31 L109.193341,17.31 C107.459902,19.2522222 106.580976,21.5533333 106.580976,24.14 C106.580976,26.7477778 107.452134,29.0411111 109.174476,30.96 L119.498537,30.96 L119.498537,30.96 Z" id="Shape"></path>
                        <path d="M137.22689,24.1077778 C137.22689,22.0477778 136.451171,20.2633333 134.920817,18.8022222 C133.388244,17.3388889 131.516085,16.5966667 129.3565,16.5966667 C127.200244,16.5966667 125.329195,17.3388889 123.794402,18.8022222 C122.264049,20.2633333 121.488329,22.0477778 121.488329,24.1077778 C121.488329,26.1677778 122.264049,27.9511111 123.794402,29.4111111 C125.329195,30.8755556 127.199134,31.6166667 129.3565,31.6166667 C131.517195,31.6166667 133.388244,30.8755556 134.920817,29.4111111 C136.451171,27.9511111 137.22689,26.1677778 137.22689,24.1077778 L137.22689,24.1077778 Z M131.26861,26.2622222 C130.741476,26.7744444 130.100037,27.0355556 129.3565,27.0355556 C128.615183,27.0355556 127.973744,26.7744444 127.44661,26.2622222 C126.921695,25.75 126.655354,25.1233333 126.655354,24.4 C126.655354,23.6766667 126.921695,23.0533333 127.44661,22.5377778 C127.973744,22.0233333 128.615183,21.7677778 129.3565,21.7677778 C130.100037,21.7677778 130.741476,22.0233333 131.26861,22.5377778 C131.792415,23.0533333 132.060976,23.6777778 132.060976,24.4 C132.060976,25.1233333 131.792415,25.75 131.26861,26.2622222 L131.26861,26.2622222 Z" id="Shape"></path>
                        <path d="M140.163305,32.0455556 C140.786988,32.2022222 141.350744,32.1422222 141.884537,31.8677778 C142.391695,31.6055556 142.701317,31.23 142.827829,30.7277778 C142.954341,30.2255556 142.857793,29.7544444 142.530415,29.2811111 C142.191939,28.7866667 141.720293,28.47 141.09772,28.3133333 C140.46072,28.1522222 139.892524,28.2088889 139.357622,28.4866667 C138.850463,28.7488889 138.543061,29.1188889 138.416549,29.6233333 C138.291146,30.1266667 138.388805,30.6022222 138.709524,31.0733333 C139.053549,31.5677778 139.530744,31.8866667 140.163305,32.0455556 L140.163305,32.0455556 Z" id="Shape"></path>
                        <path d="M146.167085,18.2133333 L141.372939,17.0122222 L139.737159,26.7766667 L143.000951,27.5955556 L146.167085,18.2133333 Z" id="Shape"></path>
                        <path d="M74.7709268,30.96 L74.7709268,22.5822222 L68.1967317,22.5822222 L68.1967317,25.7044444 L70.9600244,25.7044444 L70.9600244,27.0733333 L67.2379024,27.0733333 L67.1702073,26.9477778 C66.6896829,26.0633333 66.4477561,25.1188889 66.4477561,24.1411111 C66.4477561,23.1711111 66.6907927,22.2255556 67.1702073,21.3411111 L67.2379024,21.2188889 L74.7698171,21.2188889 L74.7698171,17.31 L64.4624024,17.31 C62.7289634,19.2522222 61.8500366,21.5533333 61.8500366,24.14 C61.8500366,26.7477778 62.7234146,29.0411111 64.4446463,30.96 L74.7709268,30.96 L74.7709268,30.96 Z" id="Shape"></path>
                        <path d="M84.6288902,31.6177778 C86.7873659,31.6177778 88.6606341,30.8766667 90.1943171,29.4122222 C91.723561,27.9522222 92.497061,26.1677778 92.497061,24.1088889 C92.497061,22.0488889 91.723561,20.2644444 90.1943171,18.8033333 C88.6606341,17.34 86.7884756,16.5977778 84.6288902,16.5977778 C82.4715244,16.5977778 80.5982561,17.34 79.0656829,18.8033333 C77.536439,20.2644444 76.7607195,22.0488889 76.7607195,24.1088889 C76.7607195,26.1688889 77.536439,27.9522222 79.0656829,29.4122222 C80.5982561,30.8766667 82.4704146,31.6177778 84.6288902,31.6177778 L84.6288902,31.6177778 Z M82.719,22.5377778 C83.2416951,22.0233333 83.8864634,21.7677778 84.6288902,21.7677778 C85.3724268,21.7677778 86.0127561,22.0233333 86.5398902,22.5377778 C87.0670244,23.0533333 87.3322561,23.6766667 87.3322561,24.4 C87.3322561,25.1233333 87.0670244,25.75 86.5398902,26.2622222 C86.0127561,26.7744444 85.3724268,27.0355556 84.6288902,27.0355556 C83.8864634,27.0355556 83.2416951,26.7744444 82.719,26.2622222 C82.1907561,25.75 81.9288537,25.1233333 81.9288537,24.4 C81.9288537,23.6766667 82.1907561,23.0533333 82.719,22.5377778 L82.719,22.5377778 Z" id="Shape"></path>
                        <path d="M95.4345854,32.0455556 C96.0582683,32.2022222 96.6220244,32.1422222 97.1558171,31.8677778 C97.6651951,31.6055556 97.9737073,31.23 98.098,30.7277778 C98.2267317,30.2255556 98.1268537,29.7544444 97.8005854,29.2811111 C97.461,28.7866667 96.9915732,28.47 96.3678902,28.3133333 C95.732,28.1522222 95.1649146,28.2088889 94.6277927,28.4866667 C94.1195244,28.7488889 93.8154512,29.1188889 93.6878293,29.6233333 C93.5624268,30.1266667 93.6567561,30.6022222 93.9808049,31.0733333 C94.325939,31.5677778 94.8009146,31.8866667 95.4345854,32.0455556 L95.4345854,32.0455556 Z" id="Shape"></path>
                        <path d="M101.439476,18.2133333 L96.6453293,17.0122222 L95.008439,26.7766667 L98.2722317,27.5955556 L101.439476,18.2133333 Z" id="Shape"></path>
                        <path d="M38.1112439,48.3866667 C38.1312195,49.1488889 38.7671098,49.75 39.5295122,49.7322222 C40.2908049,49.7111111 40.8878537,49.0766667 40.8745366,48.3122222 C40.8479024,47.5511111 40.217561,46.9466667 39.4518293,46.9677778 C38.6971951,46.9877778 38.0945976,47.6222222 38.1112439,48.3866667 L38.1112439,48.3866667 Z" id="Shape"></path>
                        <path d="M35.4200854,50.5288889 C35.394561,49.6677778 34.6787683,48.9844444 33.8164878,49.0033333 C32.9497683,49.0288889 32.268378,49.7455556 32.2939024,50.6111111 C32.3149878,51.4722222 33.0318902,52.1588889 33.8952805,52.1322222 C34.757561,52.11 35.440061,51.3922222 35.4200854,50.5288889 L35.4200854,50.5288889 Z" id="Shape"></path>
                        <path d="M16.7018293,51.8911111 C16.7251341,52.75 17.4486951,53.4344444 18.3109756,53.4122222 C19.1721463,53.39 19.8524268,52.67 19.8235732,51.8066667 C19.8080366,50.9444444 19.0900244,50.2633333 18.2266341,50.2833333 C17.3632439,50.3066667 16.6807439,51.0255556 16.7018293,51.8911111 L16.7018293,51.8911111 Z" id="Shape"></path>
                        <path d="M11.4648902,50.4588889 C11.4815366,51.2211111 12.1129878,51.8244444 12.8798293,51.8066667 C13.6433415,51.7866667 14.2415,51.15 14.2226341,50.3911111 C14.2037683,49.6222222 13.5656585,49.0233333 12.8076951,49.0422222 C12.0441829,49.0611111 11.4438049,49.6955556 11.4648902,50.4588889 L11.4648902,50.4588889 Z" id="Shape"></path>
                        <path d="M15.9460854,84.7033333 L15.8994756,84.6122222 C15.747439,85.0855556 15.4921951,85.5 15.2003293,85.8177778 C15.3823293,85.8466667 15.656439,85.8777778 16.0492927,85.8922222 C15.9705,85.5355556 15.9238902,85.1733333 15.9372073,84.8088889 C15.9372073,84.7766667 15.9427561,84.7388889 15.9460854,84.7033333 L15.9460854,84.7033333 Z" id="Shape"></path>
                        <path d="M33.0596341,54.6688889 C32.9353415,54.5711111 32.8055,54.48 32.673439,54.3911111 C32.6001951,54.3344444 32.523622,54.2755556 32.4381707,54.2277778 C32.3649268,54.1766667 32.2794756,54.1355556 32.2029024,54.0877778 C31.0298902,53.3911111 29.6582317,53 28.1977927,53.0377778 C27.9314512,53.0422222 27.6662195,53.0677778 27.399878,53.0988889 C27.3310732,53.1122222 27.2644878,53.1277778 27.1990122,53.1377778 C27.0059146,53.17 26.8161463,53.2044444 26.6274878,53.25 C26.5464756,53.2711111 26.4654634,53.2944444 26.3877805,53.3155556 C26.2146585,53.3666667 26.0459756,53.4144444 25.8761829,53.4777778 C25.7929512,53.5066667 25.7063902,53.5455556 25.6242683,53.5766667 C25.4655732,53.6377778 25.3135366,53.7011111 25.1670488,53.7711111 C25.074939,53.8144444 24.9872683,53.8622222 24.8984878,53.9133333 C24.7597683,53.9833333 24.6210488,54.0611111 24.4900976,54.1444444 C24.4035366,54.1966667 24.3103171,54.2577778 24.2237561,54.3133333 C24.0994634,54.3966667 23.974061,54.4866667 23.8519878,54.58 C23.7687561,54.6455556 23.6866341,54.71 23.6034024,54.7777778 C23.4813293,54.8811111 23.3636951,54.9866667 23.2482805,55.0966667 C23.1805854,55.1622222 23.105122,55.2266667 23.031878,55.3011111 C22.9053659,55.4311111 22.7855122,55.5722222 22.6656585,55.7155556 C21.5159512,57.0722222 20.839,58.8322222 20.893378,60.7411111 C20.9976951,64.8811111 24.4523659,68.1633333 28.5884268,68.0588889 C32.7244878,67.95 36.0015976,64.4933333 35.8895122,60.3522222 C35.8395732,58.3211111 34.9717439,56.4944444 33.6233902,55.1766667 C33.4868902,55.0411111 33.3459512,54.9188889 33.2005732,54.7977778 C33.1517439,54.7511111 33.1062439,54.7077778 33.0596341,54.6688889 L33.0596341,54.6688889 Z M24.0661707,59.6344444 C24.2592683,59.5455556 25.3301829,59.0144444 25.393439,58.9888889 C25.5243902,58.9477778 25.6187195,58.9266667 25.7152683,58.9077778 C25.744122,58.9144444 25.7740854,58.93 25.7785244,58.9688889 C25.7985,59.16 25.5543537,59.3411111 25.0682805,59.6988889 C24.7730854,59.9222222 24.5011951,59.9977778 24.4323902,60.0044444 C24.2515,60.0211111 24.0018049,59.94 23.9851585,59.8066667 C23.9773902,59.7211111 24.0484146,59.6466667 24.0661707,59.6344444 L24.0661707,59.6344444 Z M26.0970244,58.7533333 L26.0814878,58.7166667 C26.108122,58.6933333 26.2213171,58.5766667 26.249061,58.5644444 C26.3866707,58.4622222 26.5131829,58.4022222 26.658561,58.3866667 C26.9848293,58.3522222 27.0847073,58.6822222 27.0958049,58.7966667 C27.118,59.0266667 27.0458659,59.2588889 26.9482073,59.4588889 C26.8205854,59.7333333 26.3611463,60.54 26.1447439,60.7888889 L25.4933171,61.5444444 L24.8862805,62.1366667 C24.8540976,62.1777778 24.4900976,62.5033333 24.4135244,62.5122222 C24.392439,62.5144444 24.3269634,62.5011111 24.3214146,62.4722222 C24.3214146,62.4622222 24.3247439,62.4044444 24.3291829,62.3666667 C24.6643293,61.8288889 24.7864024,61.6133333 25.0449756,61.1988889 C25.7718659,60.0533333 26.2224268,59.2533333 26.1835854,58.87 C26.1769268,58.82 26.1569512,58.7955556 26.0970244,58.7533333 L26.0970244,58.7533333 Z M27.6373659,61.5877778 C27.6628902,61.8588889 27.4475976,62.0244444 27.295561,62.0377778 C26.9038171,62.0755556 26.6241585,61.43 26.6197195,61.3688889 C26.6108415,61.2733333 26.9138049,61.2244444 26.9326707,61.2222222 C27.2578293,61.19 27.6007439,61.2444444 27.6373659,61.5877778 L27.6373659,61.5877778 Z M26.6119512,64.4 C26.5708902,64.5388889 26.4599146,64.7144444 26.3755732,64.7255556 C26.2301951,64.7377778 26.1070122,64.48 26.080378,64.4144444 C25.9793902,64.1455556 25.8673049,63.0333333 25.8273537,62.66 L25.7685366,62.0677778 C25.7674268,62.0544444 25.7130488,62.0055556 25.6841951,61.9877778 L25.670878,61.9677778 C25.6841951,61.8911111 25.748561,61.67 25.7718659,61.6211111 C25.8273537,61.5022222 25.9427683,61.4111111 26.0604024,61.3977778 C26.3633659,61.37 26.4177439,61.8755556 26.4244024,61.9533333 C26.4621341,62.3155556 26.608622,63.9666667 26.6119512,64.2177778 C26.6163902,64.2455556 26.6197195,64.38 26.6119512,64.4 L26.6119512,64.4 Z M25.4555854,57.89 C25.2724756,57.91 25.1870244,57.8833333 24.9450976,57.6033333 C24.8896098,57.54 24.752,57.3411111 24.747561,57.2822222 C24.7375732,57.1666667 25.152622,56.9888889 25.306878,56.9722222 C25.6897439,56.9377778 25.8917195,57.2922222 25.9072561,57.4644444 C25.9283415,57.6655556 25.7352439,57.8588889 25.4555854,57.89 L25.4555854,57.89 Z M33.1628415,64.6922222 C33.0529756,64.8522222 32.8809634,65.0155556 32.7022927,65.2244444 C32.5169634,65.4277778 32.2761463,65.6177778 32.0164634,65.8333333 C31.7334756,66.0133333 31.4371707,66.2388889 31.0820488,66.3977778 C30.7391341,66.58 30.3485,66.7144444 29.9378902,66.8344444 C29.5217317,66.93 29.0867073,67.01 28.6372561,67.0188889 C28.1489634,67.03 27.755,66.98 27.3022195,66.93 C26.8583171,66.7955556 26.3789024,66.7366667 25.9838293,66.5188889 C25.7807439,66.4266667 25.5809878,66.3311111 25.380122,66.2366667 C25.198122,66.1155556 25.0194512,65.99 24.8407805,65.8755556 C24.4712317,65.6566667 24.2026707,65.3333333 23.9230122,65.0644444 C23.6433537,64.7977778 23.4635732,64.4644444 23.2560488,64.2011111 C23.059622,63.9322222 22.9586341,63.6288889 22.8343415,63.3888889 C22.7045,63.15 22.6567805,62.9144444 22.6012927,62.7277778 C22.5036341,62.3522222 22.4459268,62.14 22.4459268,62.14 C22.4459268,62.14 22.5358171,62.3433333 22.6945122,62.6955556 C22.7733049,62.8677778 22.8432195,63.0888889 23.0008049,63.3044444 C23.1539512,63.5233333 23.2826829,63.7911111 23.4857683,64.0422222 C23.7088293,64.2788889 23.8974878,64.5777778 24.1826951,64.8088889 C24.4667927,65.0411111 24.7375732,65.3188889 25.0904756,65.5111111 C25.2580488,65.6144444 25.430061,65.72 25.6009634,65.8311111 C25.7907317,65.9088889 25.9782805,65.99 26.1691585,66.0733333 C26.5420366,66.2766667 26.9559756,66.3066667 27.3521585,66.4333333 C27.7616585,66.4855556 28.2499512,66.5466667 28.6217195,66.5377778 C28.8303537,66.5255556 29.0345488,66.5166667 29.2409634,66.5033333 C29.4407195,66.4711111 29.6393659,66.4344444 29.8357927,66.4044444 C30.216439,66.3033333 30.5970854,66.22 30.9277927,66.0666667 C31.2773659,65.9466667 31.568122,65.7544444 31.8566585,65.6055556 C32.114122,65.4144444 32.3760244,65.2622222 32.5724512,65.0911111 C32.7677683,64.9144444 32.9564268,64.7788889 33.082939,64.6333333 C33.3503902,64.3522222 33.5024268,64.1933333 33.5024268,64.1933333 C33.5024268,64.1933333 33.3803537,64.3711111 33.1628415,64.6922222 L33.1628415,64.6922222 Z M29.8879512,62.8311111 C29.8768537,62.7355556 29.8579878,62.6222222 29.8424512,62.4688889 C29.661561,62.5177778 29.570561,62.5466667 29.4629146,62.5544444 C29.2243171,62.58 29.0578537,62.3622222 29.0523049,62.3077778 C29.0456463,62.26 29.0622927,62.2177778 29.1100122,62.2033333 C29.1843659,62.1833333 29.7181585,62.0166667 29.7636585,61.9933333 L29.7092805,61.2644444 L29.6815366,61.2388889 L29.611622,61.2566667 L28.838122,61.4311111 C28.7981707,61.4322222 28.392,61.5211111 28.3753537,61.33 C28.3698049,61.2566667 28.478561,61.2144444 28.6683293,61.1566667 C29.2287561,60.9922222 29.2920122,60.9577778 29.9145854,60.79 C31.4549268,60.3511111 31.5159634,60.3477778 31.7700976,60.3211111 C32.118561,60.2866667 32.4170854,60.4688889 32.8165976,60.6988889 C32.8987195,60.7511111 32.9364512,60.8311111 32.942,60.9111111 C32.9475488,60.9844444 32.7744268,62.0311111 32.3382927,63.07 C32.2517317,63.2733333 32.1751585,63.3566667 32.0697317,63.3677778 C31.9887195,63.3788889 31.4571463,63.3522222 31.3417317,63.3655556 C31.2385244,63.3744444 31.171939,63.3911111 30.766878,63.4711111 C30.2341951,63.5722222 30.1953537,63.5855556 29.7015122,63.6844444 L29.6837561,63.6866667 C29.520622,63.7022222 29.1322073,63.6822222 29.1166707,63.5277778 C29.1100122,63.4722222 29.219878,63.4122222 29.2942317,63.3777778 C29.3774634,63.3366667 29.8102683,63.2388889 29.9057073,63.2066667 C29.9001585,63.15 29.8923902,62.8788889 29.8879512,62.8311111 L29.8879512,62.8311111 Z M31.3062195,59.5433333 C31.1896951,59.7322222 31.0875976,59.8666667 30.9610854,59.88 C30.9233537,59.8833333 30.7280366,59.8666667 30.6936341,59.8777778 L30.0333293,60.04 C29.9101463,60.0722222 29.6071829,60.1422222 29.4895488,60.1533333 C29.3574878,60.1666667 29.0966951,60.1833333 29.0811585,60.0077778 C29.0767195,59.9433333 29.115561,59.8711111 29.2098902,59.8433333 L29.9911585,59.6266667 C30.5249512,59.4788889 30.5338293,59.47 30.6115122,59.2666667 C30.6636707,59.1166667 30.7657683,58.7788889 30.7391341,58.52 C30.7235976,58.3655556 30.6070732,58.3577778 30.4838902,58.39 L29.6005244,58.6244444 C29.3996585,58.6744444 29.1843659,58.7433333 29.0889268,58.75 C29.0023659,58.7611111 28.6772073,58.7644444 28.6683293,58.6866667 C28.6683293,58.6777778 28.6894146,58.6088889 28.6982927,58.5877778 L28.8270244,58.5255556 L30.0177927,58.1544444 C30.1476341,58.1122222 30.6725488,57.9611111 30.7513415,57.9544444 C30.885622,57.9411111 31.7101707,58.0911111 31.7490122,58.4555556 C31.767878,58.6455556 31.4571463,59.3066667 31.3062195,59.5433333 L31.3062195,59.5433333 Z M31.0432073,57.2966667 C31.035439,57.3066667 30.7147195,57.4288889 30.7069512,57.4288889 L29.889061,57.6566667 C29.1555122,57.8544444 28.9957073,57.8911111 28.4319512,57.9477778 C28.3442805,57.9544444 28.1156707,57.9 28.0934756,57.8344444 C28.0812683,57.8155556 28.0857073,57.7966667 28.0956951,57.7688889 L28.1456341,57.7033333 L28.9158049,57.4211111 L29.7891829,57.15 C29.8935,57.12 30.576,56.8766667 30.6137317,56.8744444 C30.7857439,56.8544444 31.0598537,57.07 31.0698415,57.1844444 C31.0765,57.2344444 31.0598537,57.2755556 31.0432073,57.2966667 L31.0432073,57.2966667 Z M28.2521707,58.77 C28.2699268,58.7666667 28.4275122,58.7811111 28.5118537,58.8666667 C28.5995244,58.9544444 28.6272683,59.04 28.706061,59.2577778 C28.8236951,59.5722222 28.8780732,59.7133333 28.8980488,59.9155556 C28.9158049,60.1066667 28.7360244,60.1222222 28.7093902,60.1266667 C28.5640122,60.1433333 28.4596951,59.9877778 28.4252927,59.9111111 C28.3786829,59.8211111 28.1178902,59.3522222 28.0857073,59.3377778 C28.0546341,59.3088889 27.9958171,59.3077778 27.9858293,59.3011111 C27.9170244,59.1877778 27.9647439,58.7966667 28.2521707,58.77 L28.2521707,58.77 Z M28.1256585,61.5755556 C28.4119756,61.5488889 28.5884268,62.0233333 28.6616707,62.2866667 C28.7082805,62.4388889 28.9035976,63.1355556 28.9091463,63.2022222 C28.9202439,63.3177778 28.8747439,63.5166667 28.719378,63.5322222 C28.5862073,63.5422222 28.383122,63.2744444 28.3476098,63.2022222 L27.9114756,62.3044444 C27.8260244,62.2277778 27.804939,62.1988889 27.7949512,62.1033333 C27.7716463,61.8933333 27.8704146,61.6011111 28.1256585,61.5755556 L28.1256585,61.5755556 Z M33.4891098,56.8777778 C33.6311585,57.13 33.7143902,57.2744444 33.7143902,57.2744444 C33.7143902,57.2744444 33.6034146,57.1511111 33.4114268,56.9355556 C33.3170976,56.8266667 33.2161098,56.69 33.0618537,56.5655556 C32.9098171,56.4344444 32.7588902,56.2733333 32.5702317,56.1211111 C32.3738049,55.9811111 32.1795976,55.8077778 31.9443293,55.6666667 C31.7024024,55.5377778 31.4693537,55.3633333 31.1941341,55.2544444 C30.6647805,54.9988889 30.0510854,54.8011111 29.4484878,54.7033333 C29.1521829,54.63 28.8026098,54.6422222 28.4896585,54.6077778 C28.1844756,54.6266667 27.882622,54.6422222 27.5896463,54.66 C27.2922317,54.6655556 27.0203415,54.7688889 26.7506707,54.81 C26.476561,54.8511111 26.2368537,54.9433333 26.0193415,55.0377778 C25.8007195,55.1333333 25.5843171,55.1911111 25.4056463,55.2788889 C25.2303049,55.3766667 25.0782683,55.4622222 24.9517561,55.5333333 C24.6987317,55.6677778 24.5533537,55.7455556 24.5533537,55.7455556 C24.5533537,55.7455556 24.6787561,55.64 24.8995976,55.4522222 C25.0116829,55.36 25.1459634,55.2511111 25.298,55.1244444 C25.4633537,55.0055556 25.6719878,54.9044444 25.8972683,54.7833333 C26.1192195,54.66 26.3655854,54.5333333 26.6452439,54.4622222 C26.9282317,54.3888889 27.2112195,54.2433333 27.5297195,54.2211111 C27.8515488,54.1911111 28.1578415,54.1366667 28.5185122,54.1233333 C28.847,54.1533333 29.161061,54.1344444 29.5050854,54.2066667 C30.1942439,54.3222222 30.840122,54.5466667 31.3972195,54.8611111 C31.6868659,54.9888889 31.9188049,55.2077778 32.159622,55.3688889 C32.3893415,55.5444444 32.5757805,55.7488889 32.7633293,55.9122222 C32.9453293,56.0866667 33.0762805,56.2844444 33.2027927,56.4411111 C33.3315244,56.5966667 33.4147561,56.7566667 33.4891098,56.8777778 L33.4891098,56.8777778 Z" id="Shape"></path>
                        <path d="M30.4228537,61.8 C30.4705732,61.7933333 30.6470244,61.73 30.6858659,61.7266667 C30.7890732,61.6966667 30.844561,61.69 30.8745244,61.6877778 C31.1808171,61.6577778 31.3273049,61.9811111 31.3328537,62.0288889 C31.3417317,62.0966667 31.2462927,62.1444444 31.2207683,62.1588889 C31.1941341,62.1722222 30.5316098,62.3044444 30.4106463,62.3633333 L30.4838902,63.0922222 L31.4016585,62.9033333 L31.5592439,62.82 L31.7279268,62.1055556 C31.7900732,61.84 31.8888415,61.2955556 31.8644268,61.0466667 C31.858878,60.99 31.8377927,60.79 31.6169512,60.8111111 C31.5781098,60.8155556 31.3794634,60.8455556 31.340622,60.8477778 L30.5582439,61.0433333 L30.3307439,61.1122222 L30.3052195,61.1266667 C30.3052195,61.2233333 30.3562683,61.6333333 30.3562683,61.7088889 C30.3629268,61.7866667 30.3740244,61.8055556 30.4228537,61.8 L30.4228537,61.8 Z" id="Shape"></path>
                        <path d="M57.2734024,18.7466667 C56.4177805,17.7333333 55.2347805,17.1277778 53.7776707,16.8955556 C52.1751829,16.5122222 50.1709634,16.6577778 47.783878,17.3688889 C48.9247073,19.4222222 49.694878,21.6133333 50.0444512,23.8922222 C50.2808293,23.8533333 50.6237439,23.8077778 51.0221463,23.7644444 C51.0055,23.7188889 50.996622,23.6755556 50.9932927,23.63 L50.905622,20.3788889 C50.9034024,20.17 51.0676463,19.9966667 51.2751707,19.9911111 C51.4804756,19.9844444 51.6535976,20.1511111 51.6591463,20.3566667 L51.7468171,23.6077778 C51.7468171,23.6355556 51.7390488,23.6644444 51.7346098,23.69 C52.3216707,23.6311111 52.9875244,23.5855556 53.6711341,23.5666667 L53.6711341,23.56 L53.5867927,20.3111111 C53.5823537,20.1011111 53.7477073,19.9255556 53.9552317,19.92 C54.1605366,19.9166667 54.335878,20.0822222 54.3425366,20.2866667 L54.4213293,23.54 C54.4213293,23.5466667 54.4202195,23.5522222 54.4202195,23.5633333 C55.0982805,23.57 55.7641341,23.6144444 56.3556341,23.7155556 L56.2635244,20.2388889 C56.2590854,20.03 56.4222195,19.8588889 56.6297439,19.8477778 C56.838378,19.8477778 57.0126098,20.0088889 57.015939,20.2166667 L57.1080488,23.8955556 C57.4698293,24.0122222 57.7594756,24.1677778 57.9925244,24.3577778 C58.1223659,24.5444444 58.2411098,24.7677778 58.2610854,24.9177778 C58.3010366,25.1855556 58.2910488,25.6566667 57.9314878,26.1588889 C56.5010122,27.4322222 52.5536098,28.2744444 50.1998171,27.8733333 C49.9900732,31.6366667 49.0234756,34.9533333 47.4098902,37.7855556 C47.4909024,38.3533333 48.1034878,41.8188889 51.1530976,44.4266667 C51.3140122,44.5644444 51.3295488,44.8011111 51.196378,44.9588889 C51.1242439,45.0433333 51.0232561,45.0888889 50.9200488,45.0911111 C50.8301585,45.0911111 50.7391585,45.0633333 50.6659146,45.0011111 C48.1223537,42.83 47.174622,40.1566667 46.8361463,38.7444444 C46.583122,39.1344444 46.3201098,39.5155556 46.0404512,39.88 C46.7984146,40.6911111 47.3011341,41.9088889 47.5530488,43.6322222 C47.7650122,45.13 47.506439,46.4711111 46.9238171,47.6611111 L46.9271463,47.6644444 C47.4232073,48.5544444 47.9115,49.38 48.3898049,50.1188889 C48.5052195,50.2966667 48.4541707,50.5266667 48.279939,50.6411111 C48.2166829,50.6788889 48.1489878,50.6988889 48.0790732,50.6988889 C47.957,50.7033333 47.8271585,50.6411111 47.7572439,50.5277778 C47.3444146,49.8855556 46.9182683,49.1733333 46.4899024,48.4211111 C43.994061,52.33 37.9814024,54.4544444 34.6565732,55.17 C35.8517805,56.5588889 36.5919878,58.3555556 36.6430366,60.3311111 C36.764,64.8888889 33.1572927,68.6877778 28.6061829,68.81 C24.0561829,68.9255556 20.2608171,65.3155556 20.1420732,60.7588889 C20.0921341,58.9811111 20.620378,57.3233333 21.5436951,55.9477778 C13.9207805,55.5511111 7.09467073,52.4366667 4.41904878,49.2622222 C3.7210122,47.5255556 2.5124878,43.5933333 4.31695122,40.6777778 C4.6587561,41.1444444 5.01387805,41.5866667 5.38786585,41.9988889 C5.53435366,42.1577778 5.68195122,42.3155556 5.83176829,42.4711111 C5.90279268,42.5411111 5.97381707,42.6088889 6.04040244,42.6788889 C10.0677073,46.5544444 16.2634756,48.2622222 25.3989878,48.0255556 C26.2013415,48.0033333 26.9715122,47.9455556 27.7450122,47.8833333 C27.9747317,47.8666667 28.205561,47.8455556 28.433061,47.8233333 C29.0367683,47.7622222 29.6238293,47.68 30.2086707,47.5911111 C30.6703293,47.52 31.1297683,47.4422222 31.5825488,47.35 C31.5903171,47.3477778 31.5969756,47.3455556 31.6047439,47.3422222 C37.3499512,46.1844444 42.0142561,43.6044444 45.0982683,39.8233333 C47.9581098,36.2877778 49.5073293,31.7177778 49.5073293,26.2688889 C49.3908049,21.82 47.6695732,17.5944444 44.5300732,14.0633333 C44.4745854,14.0011111 44.4390732,13.9255556 44.4335244,13.8433333 C43.7010854,5.12555556 40.2486341,0.167777778 37.210122,-0.218888889 C33.9374512,-0.641111111 29.7514512,5.89222222 29.715939,5.95333333 C29.6393659,6.08333333 29.4917683,6.14888889 29.3441707,6.12444444 C23.7498902,5.28888889 17.7871707,6.15888889 12.8243415,8.57222222 C12.6878415,8.64333333 12.516939,8.61777778 12.4070732,8.51111111 C12.3948659,8.49777778 12.3837683,8.48666667 12.3737805,8.47666667 C10.8711707,7.12888889 6.84719512,5.57777778 4.02286585,5.65333333 C3.05515854,5.67666667 2.33714634,5.89888889 1.94096341,6.29555556 C0.476085366,7.76 1.74897561,15.4055556 2.35934146,18.2266667 C2.38264634,18.3133333 2.37043902,18.4044444 2.32715854,18.4788889 C0.834536585,21.3566667 0.11652439,24.41 0.203085366,27.5611111 C0.582621951,33.1166667 1.9565,37.1811111 3.9862439,40.1766667 C1.90212195,43.2611111 3.11952439,47.4544444 3.87193902,49.3711111 C3.73543902,52.5877778 3.4025122,57.8388889 2.65120732,60.0588889 C2.57019512,60.2844444 2.47808537,60.5511111 2.37154878,60.8555556 C0.974365854,64.7466667 -2.66563415,74.94 4.26923171,81.5322222 C4.37354878,81.2066667 4.5599878,80.8077778 4.88292683,80.4166667 C5.01831707,80.2544444 5.25247561,80.2344444 5.41560976,80.3677778 C5.57652439,80.5 5.5965,80.74 5.46,80.9 C4.91289024,81.5666667 4.86960976,82.26 4.86960976,82.27 C4.86960976,82.2944444 4.86073171,82.3166667 4.8585122,82.34 C4.85518293,82.3466667 4.8585122,82.3577778 4.85518293,82.3677778 C4.823,82.4722222 4.06614634,84.9866667 7.19454878,86.0166667 C8.40640244,86.4166667 9.74143902,86.6166667 10.961061,86.5833333 C12.3427073,86.5522222 13.4901951,86.22 14.2903293,85.64 C14.6443415,85.3577778 15.751878,84.3222222 15.0660488,82.9122222 L13.5856341,79.9122222 C13.3570244,79.5777778 13.054061,79.3144444 12.653439,79.1366667 C10.4938537,78.1966667 6.68406098,79.9311111 6.64410976,79.9466667 C6.45323171,80.0333333 6.23128049,79.9466667 6.1425,79.7622222 C6.0515,79.5711111 6.13584146,79.35 6.32782927,79.2633333 C6.49540244,79.1855556 10.374,77.4322222 12.8443171,78.4122222 L10.1176463,72.8788889 C10.1065488,72.8655556 10.1065488,72.8377778 10.0998902,72.82 C7.83487805,68.2022222 5.73743902,63.9433333 5.73743902,63.9433333 C5.70969512,63.8922222 5.69082927,63.8322222 5.69082927,63.7644444 C5.69082927,63.5566667 5.8595122,63.3866667 6.07147561,63.3866667 C6.22129268,63.3866667 6.35446341,63.4777778 6.41328049,63.6122222 C6.41328049,63.6122222 11.3261707,73.6033333 14.2592561,79.5666667 C14.3879878,79.7711111 14.4923049,79.9855556 14.5788659,80.2244444 C15.3312805,81.7533333 15.9150122,82.9388889 16.2002195,83.5188889 C16.4743293,82.8333333 17.0003537,82.1244444 17.9935854,81.5677778 C18.1789146,81.4677778 18.4064146,81.5333333 18.5062927,81.7144444 C18.6072805,81.8977778 18.5418049,82.1244444 18.3609146,82.2277778 C17.2999878,82.8222222 16.7195854,83.7188889 16.6862927,84.83 C16.6763049,85.2622222 16.7506585,85.6922222 16.8771707,86.1144444 C16.8816098,86.1244444 16.8938171,86.1322222 16.8982561,86.1433333 C17.1346341,86.9166667 17.5918537,87.6588889 18.1311951,88.2111111 C18.1655976,88.2466667 18.2011098,88.2822222 18.2399512,88.3166667 C18.4108537,88.4777778 18.5861951,88.6266667 18.7704146,88.7422222 C19.573878,89.2577778 21.7035,90.21 24.028439,90.1611111 C24.0572927,90.1611111 24.0794878,90.1566667 24.1016829,90.1566667 C24.4634634,90.1511111 24.8119268,90.1111111 25.1481829,90.0522222 C25.2081098,90.0411111 25.2713659,90.0288889 25.3312927,90.0133333 C25.6497927,89.9477778 25.9549756,89.8677778 26.2457317,89.7611111 C26.2701463,89.75 26.299,89.7388889 26.3245244,89.7266667 C26.5997439,89.62 26.8516585,89.49 27.1046829,89.34 C27.1801463,89.2988889 27.2511707,89.2566667 27.3221951,89.2077778 C27.5796585,89.0433333 27.8315732,88.8611111 28.0635122,88.6455556 C28.2333049,88.4888889 28.383122,88.3244444 28.5207317,88.1577778 C28.5584634,88.11 28.5895366,88.0611111 28.6250488,88.0177778 C28.7215976,87.8866667 28.8114878,87.7544444 28.8913902,87.6211111 C28.9169146,87.5722222 28.9457683,87.5211111 28.9735122,87.4744444 C29.0523049,87.3333333 29.1166707,87.19 29.1765976,87.0444444 C29.1932439,87 29.206561,86.9622222 29.2254268,86.9166667 C29.2853537,86.7622222 29.3275244,86.6044444 29.3674756,86.4511111 C29.3774634,86.4088889 29.3918902,86.37 29.3985488,86.3288889 C29.4351707,86.1744444 29.4562561,86.0211111 29.479561,85.8677778 C29.4873293,85.8155556 29.4906585,85.7666667 29.5006463,85.7077778 C29.5128537,85.5733333 29.5172927,85.4433333 29.520622,85.3111111 C29.5228415,85.2266667 29.5272805,85.1433333 29.5228415,85.0566667 C29.5228415,84.9511111 29.520622,84.8533333 29.5172927,84.7511111 C29.5095244,84.6244444 29.5006463,84.4977778 29.4828902,84.3633333 C29.401878,83.6244444 29.2176585,82.95 29.037878,82.4255556 C28.9490976,82.3366667 28.706061,82.1066667 28.3265244,81.86 L26.699622,81.28 C26.3999878,81.2433333 26.0903659,81.2355556 25.744122,81.2888889 C25.5365976,81.3211111 25.3446098,81.1788889 25.3124268,80.97 C25.2835732,80.7644444 25.4245122,80.5755556 25.6298171,80.5433333 C26.8028293,80.3611111 27.7627683,80.6744444 28.4541463,81.0566667 L22.8487683,68.7266667 C22.7599878,68.5366667 22.845439,68.3144444 23.0307683,68.2244444 C23.2238659,68.1377778 23.4458171,68.2244444 23.532378,68.4133333 L29.2742561,81.0455556 C29.2753659,81.0555556 29.4140854,81.3177778 29.583878,81.7466667 C29.9190244,80.7877778 30.7713171,79.7344444 32.7489024,78.9233333 C33.2760366,77.7411111 37.3377439,68.6977778 41.0032683,64.2188889 C41.1353293,64.0566667 41.3705976,64.0333333 41.5292927,64.1644444 C41.6890976,64.2966667 41.7168415,64.5311111 41.5836707,64.6966667 C38.4142073,68.5677778 34.8274756,76.1833333 33.724378,78.5922222 C37.7505732,77.5833333 40.6037561,80.9477778 40.635939,80.9855556 C40.7668902,81.1466667 40.7458049,81.38 40.5893293,81.5155556 C40.4261951,81.6455556 40.1831585,81.6244444 40.0555366,81.4677778 C39.9379024,81.3244444 37.1157927,78.0188889 33.1717195,79.5611111 C29.7336951,80.9111111 30.0632927,82.8777778 30.2219878,83.82 C30.248622,83.9766667 30.2708171,84.1033333 30.2708171,84.1911111 C30.2741463,84.59 30.580439,86.4844444 31.8755244,87.7266667 C32.723378,88.5488889 33.8453415,88.9433333 35.2158902,88.9055556 C35.7519024,88.8977778 36.3256463,88.8122222 36.9293537,88.6688889 C38.0124756,88.4133333 39.1410976,88.0944444 40.2841463,87.7122222 C40.399561,87.5233333 40.6481463,87.0955556 40.8523415,86.5433333 L41.1808293,85.11 C41.2041341,84.7411111 41.1930366,84.3655556 41.0865,83.9944444 C41.032122,83.7966667 41.1475366,83.5877778 41.3484024,83.5322222 C41.5481585,83.4755556 41.7545732,83.5933333 41.8122805,83.7922222 C42.1862683,85.12 41.7468049,86.4788889 41.3384146,87.3455556 C46.2102439,85.5755556 51.1486585,82.7255556 53.5224268,78.8488889 C56.1625366,74.5411111 57.8293902,67.8111111 56.0426829,61.8666667 C55.9383659,64.8533333 54.727622,69.8422222 48.9724268,75.2644444 C48.903622,75.3322222 48.812622,75.3644444 48.726061,75.3677778 C48.6228537,75.3711111 48.5196463,75.3322222 48.4386341,75.25 C48.3021341,75.1 48.3043537,74.8588889 48.4575,74.7166667 C56.9637805,66.6977778 55.1393415,59.5644444 55.050561,59.2388889 C54.8485854,58.7611111 54.6710244,58.3444444 54.5189878,57.9922222 C54.5067805,57.9433333 54.4890244,57.9144444 54.4668293,57.87 C54.0429024,57.5344444 51.5526098,55.8122222 48.7094146,58.5122222 C48.6395,58.58 48.5507195,58.6122222 48.4641585,58.6133333 C48.3598415,58.6133333 48.2555244,58.58 48.1822805,58.5011111 C48.0346829,58.3466667 48.0413415,58.1077778 48.193378,57.9677778 C50.5471707,55.7244444 52.7544756,56.1688889 53.9974024,56.7311111 C53.5346341,55.5644444 53.599,55.3411111 54.1272439,54.9033333 C54.290378,54.7644444 54.4967927,54.5933333 54.7420488,54.2455556 C56.924939,51.1688889 58.0424634,45.2911111 58.066878,36.7777778 C58.0835244,30.9244444 58.0335854,28.2122222 58.008061,26.9033333 C58.7549268,26.2 58.8647927,25.4566667 58.8303902,24.9888889 C58.8614634,24.72 59.2709634,21.1144444 57.2734024,18.7466667 L57.2734024,18.7466667 Z M46.0482195,30.7855556 C44.5200854,31.16 42.6534756,31.2744444 41.4127683,31.3077778 C40.6470366,31.3277778 40.122122,31.3166667 40.0666341,31.3144444 C39.8613293,31.3122222 39.6948659,31.1377778 39.7026341,30.93 C39.7092927,30.7211111 39.8635488,30.5566667 40.0866098,30.5633333 C40.1210122,30.5633333 43.4946707,30.6366667 45.8651098,30.0555556 C46.0737439,30.0055556 46.2723902,30.13 46.319,30.3322222 C46.368939,30.5322222 46.2457561,30.7366667 46.0482195,30.7855556 L46.0482195,30.7855556 Z M47.0536585,26.85 C47.174622,27.0155556 47.1368902,27.2511111 46.9704268,27.3744444 C45.6331707,28.3611111 41.218561,28.5977778 40.7191707,28.6255556 L40.7102927,28.6255556 C40.5049878,28.6344444 40.3351951,28.4733333 40.3229878,28.2655556 C40.3141098,28.0588889 40.4716951,27.8811111 40.6781098,27.8733333 C41.9754146,27.8088889 45.5466098,27.4855556 46.5209756,26.7711111 C46.6963171,26.6477778 46.9304756,26.6811111 47.0536585,26.85 L47.0536585,26.85 Z M45.6620244,23.4777778 C45.8251585,23.3433333 46.0593171,23.3622222 46.1958171,23.5166667 C46.3300976,23.6788889 46.3134512,23.9188889 46.1503171,24.05 C44.6654634,25.3166667 42.3549512,25.5166667 41.396122,25.5411111 C41.1397683,25.55 40.9755244,25.5411111 40.95,25.5411111 C40.7424756,25.5333333 40.5804512,25.3566667 40.5871098,25.1477778 C40.5982073,24.9388889 40.7702195,24.7744444 40.9799634,24.7877778 C41.0088171,24.7866667 44.0118171,24.8844444 45.6620244,23.4777778 L45.6620244,23.4777778 Z M32.6290488,4.53222222 C33.587878,3.06333333 36.0559756,0.32 37.528622,0.196666667 C39.0001585,0.0688888889 41.9532195,6.11666667 40.8878537,8.78222222 C39.8291463,11.4488889 32.6745488,6.44888889 32.6745488,6.44888889 C32.6745488,6.44888889 31.6691098,5.99666667 32.6290488,4.53222222 L32.6290488,4.53222222 Z M38.1312195,11.4722222 L37.2167805,13.6555556 C37.1546341,13.7988889 37.0225732,13.8888889 36.8760854,13.89 C36.8261463,13.89 36.7750976,13.8811111 36.722939,13.8611111 C36.5287317,13.78 36.4421707,13.56 36.5231829,13.3677778 L37.437622,11.1822222 C37.5164146,10.9877778 37.7372561,10.9022222 37.9259146,10.9811111 C38.1223415,11.06 38.2055732,11.2811111 38.1312195,11.4722222 L38.1312195,11.4722222 Z M34.179378,13.2388889 C34.1882561,13.4477778 34.0306707,13.6233333 33.8198171,13.6322222 L33.815378,13.6322222 C33.6100732,13.6388889 33.4369512,13.4811111 33.4258537,13.2755556 L33.2893537,10.2966667 C33.2815854,10.0877778 33.4436098,9.91222222 33.6577927,9.90333333 L33.6589024,9.90333333 C33.8642073,9.89888889 34.038439,10.0555556 34.042878,10.2622222 L34.179378,13.2388889 L34.179378,13.2388889 Z M33.6111829,17.1077778 C36.1946951,17.0433333 38.4863415,18.4411111 39.1732805,20.51 C39.2420854,20.7077778 39.138878,20.9222222 38.9402317,20.9855556 C38.7382561,21.0488889 38.5274024,20.9455556 38.4641463,20.7511111 C37.8793049,18.9933333 35.8917317,17.8044444 33.6322683,17.8622222 C30.931122,17.9333333 28.7848537,19.7611111 28.8414512,21.9444444 C28.8492195,22.1533333 28.6827561,22.3266667 28.474122,22.3355556 C28.2677073,22.34 28.0956951,22.1744444 28.0879268,21.9688889 C28.023561,19.3722222 30.4994268,17.1888889 33.6111829,17.1077778 L33.6111829,17.1077778 Z M19.929,29.22 C20.119878,29.1333333 20.3362805,29.2133333 20.4261707,29.4011111 C20.4361585,29.4177778 20.7158171,29.9911111 21.2618171,30.1633333 C21.6158293,30.27 22.0275488,30.1911111 22.4869878,29.9222222 C23.2405122,29.4788889 23.5623415,28.6111111 23.6977317,27.8288889 C23.0962439,27.3777778 21.8433293,26.3733333 21.6957317,25.7533333 C21.6125,25.3922222 21.6713171,25.0522222 21.8710732,24.7755556 C22.2073293,24.3111111 22.8987073,24.0444444 23.987378,23.9555556 L24.1394146,23.9511111 C24.9073659,23.9288889 25.475561,24.2466667 25.7075,24.8188889 C26.0248902,25.6066667 25.6298171,26.6388889 24.6587805,27.64 C24.8762927,28.7266667 25.2402927,29.3888889 25.7252561,29.55 C26.4188537,29.7777778 27.3432805,29.0055556 27.6429146,28.69 C27.7827439,28.5377778 28.0224512,28.53 28.173378,28.6755556 C28.3254146,28.8155556 28.3331829,29.0555556 28.1889146,29.2077778 C28.1456341,29.26 27.1368659,30.3177778 26.0382073,30.3422222 C25.8562073,30.35 25.6719878,30.3266667 25.4944268,30.2688889 C24.9317805,30.0855556 24.5089634,29.61 24.2093293,28.84 C23.9718415,29.5144444 23.5634512,30.1644444 22.8676341,30.5755556 C22.4414878,30.8233333 22.030878,30.9533333 21.6391341,30.9611111 C21.4316098,30.97 21.2296341,30.94 21.0343171,30.8788889 C20.1587195,30.6044444 19.7647561,29.7555556 19.7414512,29.7211111 C19.656,29.5277778 19.7403415,29.3022222 19.929,29.22 L19.929,29.22 Z M13.4391463,20.18 C16.0282073,20.1111111 18.3120854,21.5088889 19.0034634,23.58 C19.0678293,23.78 18.9624024,23.9944444 18.7681951,24.06 C18.5673293,24.1233333 18.3564756,24.0155556 18.286561,23.8211111 C17.7017195,22.0611111 15.7141463,20.8744444 13.4624512,20.9322222 C10.7601951,21.0011111 8.61170732,22.8333333 8.66941463,25.0166667 C8.67496341,25.2255556 8.51071951,25.3988889 8.30541463,25.4044444 C8.09234146,25.4077778 7.92365854,25.2433333 7.917,25.0366667 C7.85041463,22.4388889 10.3251707,20.2588889 13.4391463,20.18 L13.4391463,20.18 Z M7.86817073,18.5322222 C7.75497561,18.5355556 7.63845122,18.4888889 7.55854878,18.3922222 L6.08035366,16.5466667 C5.94829268,16.3855556 5.97381707,16.1466667 6.1325122,16.0166667 C6.29453659,15.8844444 6.53313415,15.9122222 6.66408537,16.0744444 L8.14671951,17.9155556 C8.27656098,18.0822222 8.25658537,18.3188889 8.09123171,18.4488889 C8.0257561,18.5011111 7.94252439,18.5311111 7.86817073,18.5322222 L7.86817073,18.5322222 Z M9.94452439,13.7933333 C10.1442805,13.7411111 10.3506951,13.8655556 10.4006341,14.07 L11.0953415,16.9688889 C11.1441707,17.1711111 11.0243171,17.3722222 10.8190122,17.4211111 C10.7912683,17.4266667 10.7657439,17.4311111 10.7402195,17.4311111 C10.5670976,17.4388889 10.4084024,17.3177778 10.3629024,17.1422222 L9.66819512,14.2455556 C9.61714634,14.0422222 9.73921951,13.8422222 9.94452439,13.7933333 L9.94452439,13.7933333 Z M1.88769512,10.4244444 C1.67018293,6.03 4.43458537,6.87555556 6.08146341,7.50111111 C7.72834146,8.13333333 9.9012439,9.45888889 9.68484146,10.85 C9.46621951,12.2366667 6.79836585,15.87 3.17057317,16.3177778 C3.17057317,16.3177778 2.10631707,14.8166667 1.88769512,10.4244444 L1.88769512,10.4244444 Z M2.06414634,28.9844444 C2.17734146,28.8155556 2.41815854,28.7744444 2.59017073,28.8933333 C4.14604878,29.9911111 6.6074878,29.4222222 6.63190244,29.4166667 C6.83387805,29.3655556 7.03807317,29.49 7.09134146,29.6933333 C7.13573171,29.8955556 7.01032927,30.1 6.80946341,30.1466667 C6.75730488,30.1588889 6.15137805,30.3033333 5.33903659,30.3222222 C4.38908537,30.3455556 3.14837805,30.2066667 2.15847561,29.5122222 C1.98757317,29.3911111 1.94318293,29.1566667 2.06414634,28.9844444 L2.06414634,28.9844444 Z M1.8299878,32.4077778 C1.92986585,32.2322222 2.16291463,32.1711111 2.3382561,32.2788889 C3.23937805,32.8133333 6.25569512,32.55 7.33881707,32.4077778 C7.54523171,32.38 7.73278049,32.5233333 7.76496341,32.7266667 C7.7904878,32.9344444 7.644,33.1255556 7.44202439,33.1544444 C7.22562195,33.1822222 6.15914634,33.3177778 4.99279268,33.3477778 C3.84419512,33.38 2.59128049,33.3044444 1.95428049,32.9244444 C1.77782927,32.8188889 1.7190122,32.59 1.8299878,32.4077778 L1.8299878,32.4077778 Z M2.92642683,35.7411111 C2.94307317,35.5344444 3.1217439,35.3888889 3.33259756,35.4011111 C5.38786585,35.5888889 8.19,34.9722222 8.2177439,34.9633333 C8.42082927,34.9177778 8.62280488,35.0477778 8.66941463,35.25 C8.71602439,35.4544444 8.58729268,35.6555556 8.3819878,35.6988889 C8.28654878,35.7222222 6.40440244,36.1388889 4.53113415,36.1855556 C4.10387805,36.1977778 3.67440244,36.1888889 3.26379268,36.1522222 C3.05959756,36.1344444 2.90534146,35.9511111 2.92642683,35.7411111 L2.92642683,35.7411111 Z" id="Shape"></path>
                    </g>
                </g>
            </g>
        </g>
    </g>
</svg>