<?xml version="1.0" encoding="UTF-8" standalone="no"?>
<svg width="64px" height="99px" viewBox="0 0 64 99" version="1.1" xmlns="http://www.w3.org/2000/svg" xmlns:xlink="http://www.w3.org/1999/xlink" xmlns:sketch="http://www.bohemiancoding.com/sketch/ns">
    <!-- Generator: Sketch 3.2.2 (9983) - http://www.bohemiancoding.com/sketch -->
    <title>Shape 11</title>
    <desc>Created with Sketch.</desc>
    <defs></defs>
    <g id="School-page" stroke="none" stroke-width="1" fill="none" fill-rule="evenodd" sketch:type="MSPage">
        <g id="Desktop-2" sketch:type="MSArtboardGroup" transform="translate(-481.000000, -8606.000000)" fill="#ED5565">
            <g id="Courses" sketch:type="MSLayerGroup" transform="translate(0.000000, 5690.000000)">
                <g id="Separator-5" transform="translate(297.000000, 2916.000000)" sketch:type="MSShapeGroup">
                    <path d="M225.904055,54.1734132 C225.93167,55.2331232 226.81076,56.0688421 227.864747,56.0441258 C228.9172,56.0147752 229.742593,55.1327134 229.724183,54.0699139 C229.687363,53.0117486 228.815944,52.1713955 227.757354,52.200746 C226.714106,52.2285519 225.881042,53.1106137 225.904055,54.1734132 Z M223.483003,55.8743357 C223.451817,54.8166181 222.577272,53.9772681 221.52375,54.0004696 C220.464805,54.03186 219.632292,54.9121539 219.663478,55.9753306 C219.689239,57.0330482 220.56514,57.8764926 221.620018,57.8437375 C222.67354,57.8164415 223.507408,56.9347828 223.483003,55.8743357 Z M201.831897,57.7755008 C201.860409,58.8305487 202.745634,59.6713113 203.800572,59.6440138 C204.854153,59.6167163 205.686428,58.7322777 205.651127,57.6717703 C205.63212,56.6126278 204.753683,55.7759597 203.697387,55.8005275 C202.64109,55.8291898 201.8061,56.7122636 201.831897,57.7755008 Z M196.482667,55.9702556 C196.505722,57.0300052 197.380299,57.8688449 198.442394,57.8441277 C199.499879,57.8163209 200.328344,56.9311364 200.302214,55.8760214 C200.276085,54.8070028 199.392286,53.9743425 198.342487,54.0006045 C197.285002,54.0268665 196.453463,54.9089612 196.482667,55.9702556 Z M200.690094,93.6684163 L200.649974,93.6 C200.519109,93.9554308 200.299407,94.2666414 200.048183,94.505264 C200.20484,94.5269569 200.44078,94.5503186 200.77893,94.561165 C200.711109,94.2933404 200.670989,94.0213441 200.682452,93.747679 C200.682452,93.723483 200.687228,93.6951153 200.690094,93.6684163 Z M220.353307,60.2764486 C220.218767,60.1701218 220.07822,60.0710447 219.935272,59.974384 C219.855989,59.9127628 219.773103,59.8487251 219.680607,59.79677 C219.601324,59.7411902 219.508828,59.6964846 219.425942,59.6445295 C218.156221,58.8869516 216.671476,58.4616447 215.090632,58.5027255 C214.802332,58.5075585 214.515233,58.5353484 214.226933,58.5691797 C214.152456,58.5836788 214.080381,58.6005944 214.009507,58.6114687 C213.800489,58.6465082 213.595076,58.6839642 213.390863,58.7335028 C213.303172,58.7564597 213.215481,58.7818331 213.131393,58.80479 C212.943998,58.8603699 212.761408,58.912325 212.577617,58.9811957 C212.487524,59.0126104 212.393826,59.0548995 212.304934,59.0887307 C212.133155,59.1551849 211.968584,59.2240556 211.810019,59.3001759 C211.710315,59.347298 211.615416,59.3992531 211.519316,59.4548329 C211.36916,59.5309532 211.219004,59.6155313 211.077256,59.7061507 C210.983559,59.7629388 210.882654,59.829393 210.788956,59.8898059 C210.654416,59.9804253 210.518675,60.0782942 210.386538,60.1797879 C210.296444,60.2510751 210.207552,60.3211541 210.117458,60.3948579 C209.98532,60.5072259 209.857988,60.6220104 209.733058,60.741628 C209.659782,60.8129152 209.578097,60.8829942 209.498814,60.9639475 C209.361872,61.1053137 209.232137,61.2587625 209.102402,61.4146278 C207.857907,62.8899111 207.125145,64.8037922 207.184006,66.8795799 C207.296924,71.3815501 211.036414,74.9507449 215.513472,74.8371686 C219.990529,74.7187593 223.537819,70.9598679 223.416493,66.4566895 C223.362437,64.2479934 222.42306,62.2616168 220.963541,60.8286226 C220.815788,60.6812151 220.663229,60.5483067 220.505865,60.4166065 C220.45301,60.3658597 220.403759,60.3187376 220.353307,60.2764486 Z M211.088452,65.8567573 C211.293959,65.7798641 212.433692,65.3204272 212.501013,65.2983204 C212.64038,65.2627573 212.740771,65.2444951 212.843524,65.2281553 C212.874232,65.2339223 212.906121,65.2473786 212.910845,65.2810194 C212.932105,65.4463398 212.672269,65.6030097 212.15496,65.9125049 C211.840795,66.105699 211.551432,66.1710583 211.478206,66.1768252 C211.285691,66.1912427 211.01995,66.1210777 211.002234,66.0057379 C210.993966,65.9317282 211.069555,65.8673301 211.088452,65.8567573 L211.088452,65.8567573 Z M212.83297,64.6967511 L212.816945,64.6540668 C212.844416,64.6269041 212.961165,64.4910904 212.989781,64.4768623 C213.131711,64.3578637 213.262196,64.2880167 213.412139,64.2699082 C213.748652,64.2298108 213.851667,64.6139695 213.863113,64.7471962 C213.886005,65.0149432 213.811606,65.2852771 213.710881,65.5181005 C213.579251,65.837586 213.105385,66.7766405 212.882188,67.0663764 L212.210306,67.9459316 L211.584208,68.6353477 C211.551014,68.6832058 211.175584,69.0621907 211.096607,69.0725384 C211.074859,69.0751253 211.007328,69.0596037 211.001605,69.0259737 C211.001605,69.0143325 211.005038,68.9470724 211.009617,68.9030946 C211.355287,68.2770583 211.481193,68.0261263 211.747886,67.5436644 C212.497601,66.2101035 212.96231,65.2788097 212.922249,64.8325648 C212.915381,64.774359 212.894778,64.7459028 212.83297,64.6967511 L212.83297,64.6967511 Z M214.743381,67.4736165 C214.765351,67.7081407 214.580038,67.8513543 214.449172,67.8628883 C214.111978,67.8955679 213.871262,67.337131 213.867441,67.2842669 C213.859799,67.2016067 214.120575,67.1593155 214.136814,67.1573932 C214.416695,67.1295194 214.711859,67.1766165 214.743381,67.4736165 L214.743381,67.4736165 Z M213.722082,71.5798752 C213.686739,71.7402634 213.591217,71.9429941 213.51862,71.9558251 C213.393485,71.9699393 213.287455,71.6722588 213.26453,71.5965556 C213.177605,71.286044 213.081127,70.0016553 213.046739,69.5705318 L212.996112,68.8866365 C212.995157,68.8712393 212.948351,68.8147826 212.923515,68.7942529 L212.912052,68.771157 C212.923515,68.6826227 212.978918,68.4272847 212.998978,68.3708281 C213.046739,68.2335358 213.146082,68.1283211 213.247336,68.1129238 C213.508112,68.0808462 213.554918,68.6646593 213.560649,68.7544766 C213.593127,69.1727691 213.719217,71.079464 213.722082,71.3694459 C213.725903,71.4015235 213.728769,71.5567793 213.722082,71.5798752 L213.722082,71.5798752 Z M211.584061,64.101772 C211.433464,64.119073 211.363185,64.096005 211.164213,63.8537915 C211.118578,63.799005 211.005401,63.6269565 211.00175,63.5760148 C210.993536,63.4760536 211.334891,63.3222672 211.461758,63.3078497 C211.776644,63.2780536 211.942757,63.5846652 211.955535,63.7336458 C211.972877,63.9076167 211.814065,64.0748594 211.584061,64.101772 L211.584061,64.101772 Z M221.127668,72.0886502 C221.004274,72.2777143 220.811082,72.4707172 220.610411,72.7175509 C220.402262,72.9578198 220.131792,73.1823334 219.840134,73.4370448 C219.522301,73.6497419 219.189512,73.9162697 218.790663,74.1040208 C218.405525,74.3193438 217.966791,74.4782102 217.505622,74.6200082 C217.038221,74.7329215 216.549631,74.8274536 216.044838,74.8379571 C215.496421,74.8510866 215.053948,74.792004 214.545415,74.7329215 C214.046854,74.5740552 213.508408,74.5044691 213.064689,74.2471319 C212.836597,74.1381574 212.612245,74.0252441 212.386646,73.9136438 C212.182236,73.7705328 211.981565,73.62217 211.780894,73.4869367 C211.365842,73.2282865 211.064212,72.8462195 210.750119,72.5284868 C210.436025,72.21338 210.234108,71.8194965 210.001031,71.5083285 C209.780418,71.1905959 209.666995,70.8321619 209.527398,70.5485657 C209.381569,70.2662826 209.327973,69.9879382 209.265653,69.7673634 C209.15597,69.323588 209.091157,69.0728155 209.091157,69.0728155 C209.091157,69.0728155 209.192116,69.3130845 209.370351,69.729288 C209.458846,69.9327945 209.537369,70.1940706 209.714358,70.4487819 C209.886362,70.7074321 210.030945,71.0238518 210.259036,71.3205774 C210.509563,71.6002347 210.721452,71.9534169 211.041777,72.2265095 C211.360856,72.500915 211.664979,72.8291512 212.061335,73.0562907 C212.249541,73.1783946 212.442734,73.3031244 212.63468,73.4344189 C212.847815,73.526325 213.058457,73.62217 213.272838,73.7206409 C213.691629,73.9609098 214.156538,73.9963594 214.601503,74.1460351 C215.061426,74.2077435 215.609843,74.2799555 216.027388,74.2694519 C216.261712,74.2550095 216.49105,74.244506 216.722881,74.2287506 C216.947233,74.1906752 217.170339,74.147348 217.390953,74.1118985 C217.818469,73.9924205 218.245985,73.8939496 218.617413,73.7127632 C219.01003,73.5709652 219.336587,73.3438257 219.660652,73.1678911 C219.949818,72.9420645 220.243969,72.762191 220.464582,72.5599975 C220.683949,72.3512392 220.895837,72.19106 221.037927,72.0190642 C221.33831,71.6868891 221.509067,71.4991379 221.509067,71.4991379 C221.509067,71.4991379 221.371963,71.7092091 221.127668,72.0886502 L221.127668,72.0886502 Z M217.359802,69.0541338 C217.348196,68.9452526 217.328466,68.8161143 217.312218,68.6413979 C217.123044,68.6971046 217.027877,68.7300221 216.915301,68.7388846 C216.665777,68.768004 216.49169,68.519856 216.485888,68.457819 C216.478924,68.4033783 216.496333,68.355268 216.546238,68.3388092 C216.623996,68.3160201 217.182234,68.1261109 217.229817,68.0995236 L217.172949,67.2689874 L217.143935,67.239868 L217.070818,67.260125 L216.261896,67.4588966 C216.220116,67.4601627 215.795344,67.5614476 215.777936,67.343685 C215.772133,67.260125 215.885869,67.2120147 216.084328,67.1461795 C216.670419,66.9588024 216.736572,66.9195545 217.387656,66.7283792 C218.998536,66.228285 219.062368,66.2244869 219.32814,66.1941014 C219.692561,66.1548535 220.004756,66.3624875 220.422563,66.6245622 C220.508446,66.6840671 220.547906,66.7752235 220.553709,66.8663799 C220.559511,66.94994 220.378462,68.1425697 219.922355,69.326337 C219.83183,69.5580262 219.75175,69.6529808 219.641495,69.6656414 C219.556773,69.6783021 219.000857,69.6479166 218.880157,69.6631093 C218.772224,69.6732378 218.702589,69.6922287 218.278978,69.7833851 C217.721902,69.8985967 217.681281,69.9137895 217.164825,70.0264689 L217.146256,70.029001 C216.975651,70.0467259 216.569449,70.0239368 216.553201,69.8479543 C216.546238,69.7846512 216.661135,69.7162839 216.738893,69.677036 C216.825937,69.6301917 217.278561,69.5187783 217.378371,69.4820626 C217.372568,69.4174934 217.364444,69.1085745 217.359802,69.0541338 L217.359802,69.0541338 Z M219.048562,66.3436015 C218.904078,66.5903451 218.777483,66.7659685 218.620615,66.7833857 C218.57383,66.78774 218.331647,66.7659685 218.28899,66.7804828 L217.470249,66.992392 C217.317509,67.0344836 216.941851,67.1259239 216.795991,67.1404382 C216.632243,67.1578554 216.308874,67.1796269 216.28961,66.9503005 C216.284105,66.8661174 216.332267,66.7717742 216.44923,66.7354884 L217.417959,66.4524589 C218.079833,66.2594183 218.090841,66.2478069 218.187163,65.9821946 C218.251837,65.7862512 218.378433,65.3450155 218.345408,65.0068316 C218.326143,64.8050824 218.181659,64.7949224 218.028919,64.8370139 L216.933594,65.1432663 C216.684532,65.2085808 216.417581,65.2985696 216.299242,65.3072782 C216.191911,65.3217926 215.788732,65.3261469 215.777724,65.2245466 C215.777724,65.2129351 215.803869,65.1229462 215.814877,65.095369 L215.974497,65.0140888 L217.450984,64.5293101 C217.61198,64.4741557 218.262845,64.2767608 218.360544,64.2680522 C218.527044,64.250635 219.549439,64.4465784 219.597601,64.9226485 C219.620993,65.1708435 219.235703,66.0344462 219.048562,66.3436015 L219.048562,66.3436015 Z M217.661162,62.711028 C217.653704,62.7196785 217.345833,62.8254066 217.338376,62.8254066 L216.553252,63.0224455 C215.84909,63.1935328 215.695687,63.2252513 215.154516,63.2742707 C215.070357,63.2800377 214.850906,63.2329406 214.8296,63.1762319 C214.817882,63.1598921 214.822143,63.1435523 214.831731,63.1195231 L214.879669,63.0628144 L215.618986,62.8186785 L216.457375,62.5841542 C216.557513,62.5582027 217.212671,62.3477076 217.248891,62.3457853 C217.414012,62.3284843 217.677141,62.5149503 217.686729,62.6139503 C217.693121,62.6572027 217.677141,62.6927659 217.661162,62.711028 L217.661162,62.711028 Z M215.075744,65.2287668 C215.091028,65.2240495 215.22667,65.2444914 215.299267,65.3655702 C215.37473,65.4897939 215.39861,65.6108727 215.466431,65.9190733 C215.567685,66.3640773 215.614491,66.5637787 215.631685,66.849965 C215.646968,67.1204268 215.492222,67.1424411 215.469297,67.1487309 C215.344162,67.1723177 215.254371,66.9521744 215.224759,66.8436752 C215.18464,66.7163066 214.960162,66.0527318 214.932461,66.0322899 C214.905715,65.9914061 214.855088,65.9898337 214.846491,65.980399 C214.787267,65.8200089 214.828341,65.2665057 215.075744,65.2287668 L215.075744,65.2287668 Z M215.107606,68.1127089 C215.351999,68.0865283 215.502613,68.5523254 215.565132,68.8108591 C215.604917,68.9603069 215.771635,69.6442758 215.776371,69.7097274 C215.785844,69.8231768 215.747006,70.0184407 215.61439,70.0337127 C215.500719,70.0435305 215.32737,69.7806333 215.297058,69.7097274 L214.924786,68.8283129 C214.851847,68.7530435 214.833849,68.7246812 214.825323,68.6308673 C214.805431,68.4246948 214.889737,68.1377987 215.107606,68.1127089 L215.107606,68.1127089 Z M221.250677,62.8218536 C221.413603,63.1295891 221.509067,63.3058252 221.509067,63.3058252 C221.509067,63.3058252 221.381781,63.1553467 221.161576,62.892348 C221.053383,62.7594931 220.937553,62.5927465 220.760625,62.4409123 C220.586244,62.280944 220.413135,62.0843729 220.196748,61.8986471 C219.971452,61.7278335 219.748701,61.5163501 219.478855,61.3441809 C219.201371,61.186924 218.934071,60.9740849 218.618401,60.84123 C218.011247,60.5294275 217.307355,60.2881195 216.616192,60.1688211 C216.276338,60.0793474 215.875387,60.0942597 215.516441,60.0522341 C215.166404,60.0752804 214.820186,60.0942597 214.484151,60.1159503 C214.143024,60.1227286 213.831173,60.2488052 213.521868,60.2989648 C213.207472,60.3491243 212.932534,60.4616443 212.683053,60.5768757 C212.4323,60.6934627 212.184092,60.7639572 211.979161,60.8710545 C211.778049,60.9903529 211.603668,61.0947389 211.458562,61.1815014 C211.168349,61.3455366 211.001605,61.440433 211.001605,61.440433 C211.001605,61.440433 211.145438,61.311645 211.398737,61.082538 C211.527296,60.9700179 211.681312,60.837163 211.855694,60.6826174 C212.04535,60.5375614 212.284648,60.4141961 212.543039,60.2664289 C212.797611,60.1159503 213.080186,59.9614047 213.400947,59.8746423 C213.725526,59.7851685 214.050105,59.6075766 214.415416,59.5804634 C214.784546,59.5438605 215.135855,59.477433 215.549535,59.461165 C215.926302,59.4977679 216.286521,59.4747217 216.681108,59.5628398 C217.471554,59.7038287 218.212359,59.9776726 218.851335,60.3613253 C219.183551,60.5172265 219.449579,60.7842921 219.72579,60.9808632 C219.989272,61.195058 220.203113,61.4445 220.418226,61.6437824 C220.626975,61.8566215 220.777173,62.0979295 220.922279,62.289078 C221.06993,62.4788708 221.165395,62.6740863 221.250677,62.8218536 Z M217.059824,68.7511415 C217.088987,68.7427201 217.196824,68.6627165 217.220562,68.6585058 C217.283637,68.6206094 217.317548,68.612188 217.33586,68.6093808 C217.523048,68.5714844 217.612574,68.9799237 217.615965,69.0402773 C217.62139,69.1258951 217.563064,69.1862487 217.547464,69.2044951 C217.531187,69.221338 217.126289,69.388363 217.052363,69.4627523 L217.097126,70.3834951 L217.658014,70.144888 L217.754322,70.0396201 L217.857411,69.1371237 C217.895392,68.8016701 217.955753,68.1139201 217.940833,67.7995201 C217.937441,67.7279379 217.924555,67.4752951 217.789589,67.5019629 C217.765852,67.5075772 217.64445,67.5454736 217.620712,67.5482808 L217.142567,67.7953094 L217.003531,67.8823308 L216.987932,67.9005772 C216.987932,68.0226879 217.01913,68.5406058 217.01913,68.6360487 C217.0232,68.7342987 217.029982,68.7581594 217.059824,68.7511415 Z M246.243102,20.7909542 C245.310577,19.6812372 244.021249,19.0180839 242.433174,18.7637738 C240.686655,18.3439795 238.502296,18.5033797 235.900659,19.2821284 C237.144026,21.5307655 237.98342,23.9302851 238.364412,26.4259316 C238.622036,26.3833437 238.995772,26.3334551 239.429983,26.2860001 C239.41184,26.2361115 239.402164,26.1886565 239.398536,26.138768 L239.302985,22.5784259 C239.300566,22.3496685 239.479572,22.1598485 239.705749,22.1537645 C239.929507,22.1464637 240.118189,22.328983 240.124237,22.55409 L240.219787,26.1144321 C240.219787,26.1448519 240.211321,26.1764886 240.206483,26.2044749 C240.846309,26.1399847 241.572009,26.0900962 242.317062,26.0694106 L242.317062,26.0621099 L242.22514,22.5042015 C242.220302,22.2742272 242.400518,22.0819736 242.626694,22.0758896 C242.850452,22.0722393 243.041553,22.2535417 243.04881,22.477432 L243.134685,26.0402076 C243.134685,26.0475083 243.133475,26.0535923 243.133475,26.0657603 C243.87248,26.073061 244.598181,26.1217328 245.242845,26.2324612 L245.142456,22.4251098 C245.137618,22.1963523 245.315415,22.0089659 245.541592,21.996798 C245.768978,21.996798 245.95887,22.1732332 245.962498,22.4007739 L246.062887,26.4295819 C246.457184,26.5573454 246.772864,26.7276967 247.026859,26.9357686 C247.168371,27.1401902 247.297787,27.384766 247.319558,27.5490333 C247.3631,27.8422809 247.352215,28.3582019 246.960337,28.9081932 C245.40129,30.3026402 241.099094,31.2249708 238.533743,30.7857078 C238.305147,34.9069923 237.251671,38.5391252 235.493057,41.6407355 C235.581351,42.2625177 236.248995,46.0577012 239.572704,48.9135189 C239.748082,49.0644015 239.765015,49.3235788 239.619875,49.4963637 C239.541257,49.5888401 239.431192,49.6387287 239.318709,49.6411623 C239.220739,49.6411623 239.12156,49.6107424 239.041733,49.5426019 C236.269557,47.1649846 235.236643,44.2373759 234.867745,42.6908296 C234.591979,43.1179246 234.305327,43.5352852 234.000533,43.934394 C234.826622,44.8226543 235.374526,46.1562616 235.649083,48.0435105 C235.880097,49.6837501 235.598284,51.1524216 234.963295,52.455609 L234.966924,52.4592594 C235.507571,53.4339121 236.039751,54.3379908 236.561046,55.1471594 C236.686834,55.3418466 236.631197,55.5937231 236.441306,55.719053 C236.372364,55.760424 236.298585,55.7823263 236.222386,55.7823263 C236.089341,55.7871935 235.947829,55.719053 235.871631,55.5949399 C235.421696,54.8916324 234.957248,54.1116669 234.490381,53.2878967 C231.770213,57.5685813 225.217136,59.8950933 221.593471,60.6787092 C222.896103,62.1997029 223.702841,64.1672603 223.758478,66.3307217 C223.890313,71.3220146 219.959435,75.4822365 214.999271,75.6160839 C210.040316,75.7426306 205.903823,71.7892638 205.774406,66.7991878 C205.719979,64.8523159 206.295701,63.0368578 207.302006,61.5304657 C198.993943,61.0960699 191.554302,57.6853936 188.638195,54.2090105 C187.877419,52.30716 186.560272,48.0009227 188.526921,44.8080528 C188.899447,45.3191066 189.286488,45.803391 189.694089,46.2548219 C189.853744,46.4288236 190.014607,46.6016085 190.17789,46.7719598 C190.255298,46.8486179 190.332706,46.9228424 190.405276,46.9995005 C194.794555,51.2436812 201.5472,53.113895 211.503813,52.8547177 C212.378282,52.8303818 213.217676,52.7671085 214.060698,52.698968 C214.311065,52.680716 214.562641,52.6575969 214.810589,52.633261 C215.468557,52.5663373 216.108383,52.4762945 216.74579,52.3789509 C217.248943,52.301076 217.749676,52.2159004 218.243153,52.1149064 C218.251619,52.1124728 218.258876,52.1100392 218.267343,52.1063888 C224.52893,50.8384885 229.612463,48.0130906 232.973666,43.8723374 C236.09055,40.0004959 237.779014,34.9958183 237.779014,29.0286559 C237.652016,24.156609 235.77608,19.5291378 232.354402,15.6621635 C232.293927,15.594023 232.255223,15.5112809 232.249175,15.4212381 C231.450904,5.87426497 227.688147,0.444925938 224.376533,0.0214812979 C220.809714,-0.44090078 216.247476,6.71385348 216.208772,6.78077721 C216.125316,6.92314221 215.964453,6.99493312 215.803589,6.96816363 C209.706494,6.05313383 203.207845,7.00588427 197.798956,9.64876289 C197.650188,9.72663776 197.463924,9.69865148 197.344184,9.58183916 C197.330879,9.56723762 197.318784,9.55506967 197.307899,9.54411852 C195.670234,8.06814625 191.284583,6.36950051 188.206403,6.45224257 C187.151718,6.47779526 186.369171,6.72115425 185.937379,7.15555005 C184.340838,8.75928578 185.728135,17.1320518 186.393361,20.2214941 C186.418761,20.3164041 186.405456,20.4161813 186.358286,20.4977066 C184.731507,23.6492055 183.948959,26.992958 184.0433,30.4437885 C184.45695,36.5277632 185.954312,40.9787991 188.16649,44.2592782 C185.895047,47.637101 187.221869,52.2292851 188.041911,54.3282564 C187.893142,57.8508778 187.530292,63.6014506 186.71146,66.0326069 C186.623166,66.2796163 186.522778,66.5716471 186.406666,66.9050489 C184.883904,71.1662648 180.91674,82.3291416 188.474912,89.548386 C188.588606,89.1918651 188.791802,88.7550357 189.143766,88.3267239 C189.291326,88.1490718 189.54653,88.1271695 189.724327,88.2731849 C189.899705,88.4179835 189.921476,88.6808112 189.772707,88.8560297 C189.176423,89.5861067 189.129252,90.3453867 189.129252,90.3563379 C189.129252,90.3831073 189.119576,90.4074432 189.117157,90.4329959 C189.113529,90.4402967 189.117157,90.4524647 189.113529,90.4634158 C189.078453,90.5777945 188.253574,93.3314015 191.663157,94.4593704 C192.983932,94.8974166 194.438962,95.1164397 195.768204,95.0799358 C197.274033,95.0458656 198.524657,94.6820439 199.396707,94.0468769 C199.782538,93.737811 200.98962,92.6037581 200.242148,91.0596453 L198.628674,87.774299 C198.379517,87.4080437 198.049323,87.1196633 197.612693,86.9249761 C195.259004,85.8955676 191.106787,87.7949845 191.063245,87.8120196 C190.855211,87.9069296 190.61331,87.8120196 190.51655,87.6100317 C190.417371,87.4007429 190.509293,87.1586007 190.718537,87.0636907 C190.901172,86.9785151 195.128378,85.0584127 197.820727,86.1316258 L194.848983,80.071987 C194.836888,80.0573855 194.836888,80.0269656 194.829631,80.0074969 C192.361039,74.9504971 190.075082,70.2865221 190.075082,70.2865221 C190.044845,70.2305495 190.024283,70.1648426 190.024283,70.0906181 C190.024283,69.8630774 190.208127,69.6769078 190.439142,69.6769078 C190.602425,69.6769078 190.747565,69.776685 190.811668,69.9239172 C190.811668,69.9239172 196.16613,80.8653373 199.362841,87.3958758 C199.503143,87.619766 199.616836,87.8546075 199.711177,88.1162184 C200.531219,89.7905282 201.167417,91.0888484 201.478258,91.7240154 C201.777005,90.9732529 202.350309,90.1969377 203.432812,89.5873234 C203.634799,89.4778119 203.882747,89.5496028 203.991602,89.7479404 C204.101666,89.9487115 204.030306,90.1969377 203.833157,90.3100996 C202.676874,90.9610849 202.044305,91.9430385 202.00802,93.1598334 C201.997134,93.6331666 202.078171,94.1040663 202.216054,94.5664484 C202.220892,94.5773995 202.234197,94.5859171 202.239035,94.598085 C202.496658,95.4449743 202.994973,96.2577933 203.58279,96.8625404 C203.620285,96.9014778 203.658989,96.9404153 203.701321,96.9781359 C203.887585,97.1545712 204.078686,97.3176217 204.279463,97.4441684 C205.155142,98.0087612 207.476174,99.0515545 210.010079,98.9980155 C210.041526,98.9980155 210.065716,98.9931484 210.089906,98.9931484 C210.484203,98.9870644 210.863987,98.9432598 211.230466,98.8787696 C211.295779,98.8666017 211.36472,98.8532169 211.430033,98.8361818 C211.77716,98.7643909 212.109773,98.6767817 212.426662,98.5599694 C212.453271,98.5478014 212.484718,98.5356335 212.512537,98.5222487 C212.812493,98.4054364 213.08705,98.2630714 213.362816,98.0988041 C213.445062,98.0537827 213.52247,98.0075445 213.599878,97.9540055 C213.880482,97.7739198 214.155039,97.5743655 214.407825,97.3383072 C214.592878,97.1667391 214.756161,96.9866535 214.906139,96.8041343 C214.947262,96.7518121 214.981128,96.6982731 215.019832,96.6508181 C215.125059,96.5072363 215.223029,96.3624377 215.310113,96.2164223 C215.337931,96.1628833 215.369378,96.1069108 215.399616,96.0558054 C215.48549,95.9012724 215.555641,95.7443059 215.620954,95.5849057 C215.639097,95.5362339 215.653611,95.4948629 215.674172,95.4449743 C215.739485,95.2758398 215.785447,95.1030549 215.828989,94.9351372 C215.839874,94.888899 215.855598,94.8463112 215.862855,94.8012898 C215.902768,94.6321553 215.925749,94.4642376 215.951148,94.2963199 C215.959615,94.2391305 215.963243,94.1855915 215.974129,94.1211014 C215.987433,93.9738692 215.992271,93.8315042 215.9959,93.6867056 C215.998319,93.5942292 216.003157,93.5029696 215.998319,93.4080596 C215.998319,93.292464 215.9959,93.1853861 215.992271,93.073441 C215.983805,92.9347263 215.974129,92.7960117 215.954777,92.6487795 C215.866483,91.8396109 215.665706,91.1010164 215.469767,90.5266891 C215.373007,90.4293455 215.108126,90.177469 214.694477,89.9073405 L212.921348,89.2721736 C212.594783,89.2320193 212.257332,89.2235018 211.879968,89.2819079 C211.653791,89.317195 211.444547,89.1614452 211.409472,88.9326878 C211.378025,88.7075807 211.531631,88.5007256 211.755389,88.4654385 C213.033832,88.2658841 214.08005,88.6090203 214.833569,89.0275978 L208.724379,75.5248243 C208.627619,75.3167524 208.720751,75.0733934 208.922737,74.974833 C209.133191,74.879923 209.375091,74.974833 209.469432,75.1816881 L215.72739,89.0154298 C215.7286,89.026381 215.879788,89.3135446 216.064841,89.7832274 C216.430111,88.7331334 217.359007,87.5796118 219.514338,86.6913515 C220.088851,85.3966817 224.515625,75.4931876 228.510607,70.5882872 C228.654538,70.4106351 228.910952,70.3850825 229.083911,70.5286643 C229.258079,70.6734629 229.288316,70.9302066 229.143176,71.111509 C225.688841,75.3508226 221.779734,83.6907352 220.57749,86.3287466 C224.96556,85.2238968 228.075187,88.9083519 228.110262,88.9497229 C228.252984,89.1261582 228.230003,89.3816851 228.059463,89.5301341 C227.881667,89.6724991 227.616786,89.64938 227.477693,89.4778119 C227.349486,89.3208454 224.273725,85.7008804 219.975158,87.3897918 C216.228124,88.8681976 216.587346,91.0219247 216.760304,92.0537668 C216.789332,92.2253349 216.813522,92.3640495 216.813522,92.4601763 C216.817151,92.8970057 217.150973,94.9716411 218.562461,96.3320178 C219.48652,97.2324461 220.709325,97.6644083 222.203059,97.6230373 C222.787248,97.6145197 223.41256,97.5208265 224.070529,97.3638599 C225.251002,97.0839971 226.481064,96.7347769 227.726851,96.3161995 C227.852639,96.1093443 228.123567,95.6408783 228.346115,95.0361312 L228.704127,93.4664657 C228.729527,93.0624898 228.717432,92.6512131 228.60132,92.2448036 C228.542054,92.0282141 228.667842,91.7994567 228.886762,91.7386169 C229.104472,91.6765604 229.329439,91.8055406 229.392334,92.0233469 C229.799935,93.4774169 229.320973,94.9655571 228.875877,95.9146572 C234.185586,93.9763028 239.567866,90.8552238 242.154989,86.6098262 C245.032392,81.8923122 246.849062,74.5221853 244.901766,68.0123323 C244.788073,71.2830771 243.468507,76.7464864 237.196034,82.6844457 C237.121045,82.7586702 237.021866,82.7939573 236.927525,82.7976077 C236.815042,82.8012581 236.702558,82.7586702 236.614264,82.6686274 C236.465496,82.5043601 236.467915,82.2403156 236.634826,82.0845658 C245.905652,73.3029567 243.917232,65.4911332 243.820472,65.1346123 C243.600343,64.6113905 243.406822,64.1550923 243.241121,63.7693684 C243.227816,63.7158294 243.208464,63.6841927 243.184274,63.6355209 C242.722245,63.2680488 240.008124,61.3820167 236.909383,64.3388284 C236.833184,64.4130529 236.736424,64.4483399 236.642083,64.4495567 C236.52839,64.4495567 236.414697,64.4130529 236.33487,64.3266604 C236.174006,64.1575259 236.181263,63.895915 236.346965,63.7425989 C238.912316,61.2858899 241.318014,61.7726079 242.672655,62.3883061 C242.168293,61.1106714 242.238444,60.8660956 242.814167,60.3866784 C242.991964,60.234579 243.216931,60.0471926 243.48423,59.6663358 C245.863319,56.2970306 247.081287,49.8601854 247.107896,40.5371025 C247.126038,34.1270268 247.071611,31.1568303 247.043792,29.7234459 C247.857786,28.9532147 247.977527,28.1391788 247.940032,27.6269082 C247.973898,27.3324438 248.420204,23.3839442 246.243102,20.7909542 Z M234.301834,34.1994135 C232.539896,34.4816861 230.387695,34.5679593 228.95716,34.5930874 C228.074272,34.6081643 227.469045,34.5997883 227.405068,34.598113 C227.168351,34.5964378 226.976419,34.464934 226.985376,34.3083021 C226.993053,34.1508325 227.17091,34.0268671 227.4281,34.0318927 C227.467766,34.0318927 231.357593,34.0871746 234.090709,33.6491077 C234.331264,33.6114155 234.560303,33.7052272 234.614044,33.8576711 C234.671624,34.0084398 234.529594,34.162559 234.301834,34.1994135 L234.301834,34.1994135 Z M235.502427,29.9486404 C235.638326,30.1136273 235.595936,30.3483737 235.408918,30.4712834 C233.906547,31.4545609 228.946852,31.6904146 228.385801,31.718097 L228.375827,31.718097 C228.145172,31.7269553 227.954415,31.5663976 227.9407,31.3593336 C227.930726,31.1533768 228.107769,30.9762097 228.33967,30.9684586 C229.797157,30.9042355 233.809298,30.5820128 234.903972,29.8700225 C235.100963,29.7471128 235.364034,29.7803316 235.502427,29.9486404 L235.502427,29.9486404 Z M233.044301,26.0316286 C233.208364,25.9118251 233.443855,25.928657 233.581132,26.0662825 C233.716177,26.2108388 233.699436,26.424703 233.535373,26.5415361 C232.042067,27.6702635 229.718402,27.8484836 228.754115,27.870266 C228.496302,27.8781869 228.331123,27.870266 228.305454,27.870266 C228.096748,27.8633352 227.933801,27.7059075 227.940498,27.5197665 C227.951658,27.3336255 228.12465,27.187089 228.335588,27.1989703 C228.364606,27.1979802 231.3847,27.28511 233.044301,26.0316286 L233.044301,26.0316286 Z M219.788825,4.89406294 C220.817835,3.23671349 223.466583,0.141406547 225.047018,0.00224937001 C226.626263,-0.14192248 229.79547,6.68179388 228.652126,9.68934405 C227.515927,12.6981479 219.837655,7.05664069 219.837655,7.05664069 C219.837655,7.05664069 218.758624,6.54639771 219.788825,4.89406294 L219.788825,4.89406294 Z M225.043736,13.0057898 L223.994647,15.1485527 C223.92335,15.2892227 223.771843,15.3775503 223.603785,15.3786408 C223.546492,15.3786408 223.487927,15.3699171 223.428088,15.3502887 C223.205284,15.2706848 223.105977,15.0547728 223.198918,14.8661224 L224.248007,12.7211786 C224.338402,12.5303473 224.591762,12.4463815 224.808201,12.5238045 C225.033551,12.6012275 225.129038,12.8182299 225.043736,13.0057898 L225.043736,13.0057898 Z M221.064828,14.9729178 C221.072469,15.188275 220.936828,15.3692666 220.755335,15.3784308 L220.751514,15.3784308 C220.574798,15.3853039 220.425783,15.2226405 220.416231,15.0107198 L220.298738,11.9395887 C220.292052,11.7242315 220.431514,11.5432398 220.615872,11.5340757 L220.616828,11.5340757 C220.793544,11.5294936 220.943514,11.6910115 220.947335,11.9040777 L221.064828,14.9729178 L221.064828,14.9729178 Z M220.743189,19.2256593 C223.631393,19.1545981 226.193309,20.6958915 226.961264,22.9772019 C227.038183,23.1952863 226.922804,23.4317487 226.70073,23.5015847 C226.474934,23.5714207 226.239213,23.4574777 226.168496,23.2430689 C225.51468,21.3048127 223.292699,19.9938556 220.766761,20.0575657 C217.747049,20.1359781 215.347656,22.1514214 215.410929,24.5589267 C215.419613,24.7892631 215.233518,24.9803933 215.000278,24.9901948 C214.769519,24.9950956 214.57722,24.8125418 214.568536,24.585881 C214.496579,21.7226037 217.264441,19.3150984 220.743189,19.2256593 L220.743189,19.2256593 Z M205.260765,32.6911361 C205.473164,32.5961064 205.713966,32.6838261 205.813991,32.8897238 C205.825105,32.9079987 206.136295,33.5366566 206.743855,33.7254976 C207.137782,33.8424572 207.595922,33.7559558 208.107163,33.4611202 C208.945646,32.9750068 209.303761,32.0234917 209.454417,31.165788 C208.785112,30.6711463 207.390932,29.5697767 207.226693,28.889949 C207.134077,28.4939921 207.199526,28.1211833 207.421804,27.8178194 C207.795973,27.3085578 208.565303,27.0161587 209.77672,26.9186924 L209.945899,26.9138191 C210.800435,26.8894525 211.432694,27.2378947 211.690784,27.8653342 C212.043959,28.7291296 211.604342,29.8609574 210.523822,30.958672 C210.765859,32.1501979 211.170899,32.8763221 211.710542,33.0529799 C212.482342,33.3027374 213.510996,32.4559986 213.844414,32.1099931 C214.000009,31.943082 214.266743,31.9345537 214.434687,32.0941548 C214.603865,32.2476643 214.612509,32.5108234 214.451975,32.6777345 C214.403815,32.734996 213.281309,33.8948453 212.058778,33.9216486 C211.856258,33.9301769 211.651268,33.904592 211.453687,33.8412389 C210.827603,33.6402145 210.357114,33.1187696 210.023696,32.2744675 C209.759432,33.0139933 209.304996,33.7267159 208.530726,34.1774977 C208.056533,34.4491851 207.599627,34.5917296 207.163715,34.6002579 C206.932792,34.6100046 206.708044,34.5771097 206.490705,34.5101016 C205.516385,34.2091743 205.078003,33.2783708 205.05207,33.2406026 C204.956984,33.0286133 205.050835,32.7812925 205.260765,32.6911361 L205.260765,32.6911361 Z M198.772568,22.1094851 C201.66729,22.0334784 204.220801,23.5756779 204.993802,25.8607811 C205.065767,26.0814456 204.947893,26.3180469 204.730758,26.3903758 C204.506178,26.4602529 204.270431,26.3413393 204.192263,26.1268044 C203.538376,24.184957 201.316152,22.8756812 198.798624,22.9394287 C195.777342,23.0154353 193.375206,25.0369671 193.439727,27.4458876 C193.44593,27.6763594 193.262296,27.8676019 193.032753,27.8737315 C192.794525,27.8774092 192.605927,27.695974 192.598483,27.467954 C192.524036,24.6017677 195.290959,22.1965249 198.772568,22.1094851 L198.772568,22.1094851 Z M193.086622,21.1454462 C192.941552,21.1491436 192.792215,21.09738 192.689812,20.9901554 L190.795365,18.9430289 C190.626117,18.7643213 190.658829,18.4993411 190.862211,18.3551425 C191.069861,18.208479 191.375646,18.2392907 191.543473,18.4192307 L193.443609,20.4614274 C193.610013,20.6462973 193.584412,20.9088127 193.372496,21.0530112 C193.288583,21.1109371 193.181913,21.1442137 193.086622,21.1454462 L193.086622,21.1454462 Z M194.88692,15.3911861 C195.15018,15.3361794 195.422215,15.4672592 195.488029,15.6826045 L196.403587,18.7360604 C196.46794,18.949065 196.309984,19.1608992 196.039412,19.2123948 C196.002848,19.2182466 195.969209,19.222928 195.935571,19.222928 C195.707412,19.2311205 195.498267,19.1035518 195.438303,18.9186357 L194.522745,15.8675206 C194.455467,15.6533456 194.616348,15.4426817 194.88692,15.3911861 L194.88692,15.3911861 Z M185.92375,11.5805578 C185.684755,6.59834795 188.72219,7.5569982 190.531726,8.26622302 C192.341262,8.98300619 194.728776,10.4858574 194.491,12.0630323 C194.250786,13.6351683 191.319435,17.754467 187.333334,18.2621359 C187.333334,18.2621359 186.163965,16.5602483 185.92375,11.5805578 L185.92375,11.5805578 Z M185.98725,31.9224643 C186.114345,31.7059209 186.384734,31.6532097 186.577868,31.8056448 C188.324803,33.2131769 191.088498,32.4837676 191.115911,32.4766444 C191.342689,32.4111116 191.571958,32.5706699 191.631768,32.8313767 C191.681609,33.0906589 191.540808,33.3527904 191.315276,33.4126248 C191.256713,33.4282957 190.57638,33.6134973 189.664286,33.637716 C188.597684,33.6676331 187.204622,33.4895547 186.093162,32.5991624 C185.901274,32.443878 185.851432,32.1432816 185.98725,31.9224643 L185.98725,31.9224643 Z M185.973332,35.7183773 C186.084745,35.5689287 186.344711,35.5169054 186.540304,35.6086555 C187.545505,36.0636227 190.910204,35.8394497 192.118425,35.7183773 C192.348681,35.6947304 192.557891,35.8167486 192.593791,35.9898442 C192.622263,36.1667234 192.458856,36.3294143 192.233553,36.3540071 C191.992156,36.3776541 190.802504,36.4930512 189.501437,36.5185899 C188.220178,36.5460203 186.822553,36.4817006 186.11198,36.1582105 C185.915149,36.0683521 185.849538,35.8735013 185.973332,35.7183773 L185.973332,35.7183773 Z M186.867914,39.0582761 C186.887257,38.8976263 187.094869,38.7844805 187.339877,38.7939813 C189.728059,38.939948 192.984085,38.4605898 193.016323,38.4536802 C193.252304,38.4182681 193.486996,38.519322 193.541155,38.676517 C193.595315,38.8354393 193.445731,38.9917705 193.207171,39.0254552 C193.096273,39.043593 190.909255,39.3674837 188.732553,39.4037594 C188.23609,39.4132602 187.737047,39.4063506 187.259927,39.3778482 C187.022656,39.3640289 186.843413,39.221517 186.867914,39.0582761 L186.867914,39.0582761 Z" id="Shape-11"></path>
                </g>
            </g>
        </g>
    </g>
</svg>