<?xml version="1.0" encoding="UTF-8" standalone="no"?>
<svg width="128px" height="128px" viewBox="0 0 128 128" version="1.1" xmlns="http://www.w3.org/2000/svg" xmlns:xlink="http://www.w3.org/1999/xlink" xmlns:sketch="http://www.bohemiancoding.com/sketch/ns">
    <!-- Generator: Sketch 3.1.1 (8761) - http://www.bohemiancoding.com/sketch -->
    <title>school_ico</title>
    <desc>Created with Sketch.</desc>
    <defs></defs>
    <g id="Page-1" stroke="none" stroke-width="1" fill="none" fill-rule="evenodd" sketch:type="MSPage">
        <g id="Mobile-Portrait" sketch:type="MSArtboardGroup" transform="translate(-96.000000, -455.000000)">
            <g id="学校" sketch:type="MSLayerGroup" transform="translate(33.000000, 455.000000)">
                <g id="school" transform="translate(63.000000, 0.000000)" sketch:type="MSShapeGroup">
                    <circle id="Oval-3" fill="#F9D88E" cx="64" cy="64" r="64"></circle>
                    <path d="M24.592,50.208 C21.664,50.208 20.416,50.16 18.688,50.016 C18.832,51.216 18.88,52.272 18.88,54.048 L18.88,59.328 C18.88,61.152 18.832,62.16 18.64,63.312 L25.936,63.312 L25.936,56.544 L54.64,56.544 L54.64,63.312 L61.936,63.312 C61.792,62.064 61.696,60.912 61.696,59.376 L61.696,54.048 C61.696,52.176 61.744,51.168 61.888,50.016 C60.256,50.16 58.864,50.208 55.888,50.208 L54.928,50.208 C55.984,48.432 56.944,46.608 57.616,45.12 L50.272,43.536 C49.6,45.744 48.496,48.096 47.296,50.208 L44.464,50.208 C43.648,47.664 43.12,46.32 41.632,43.344 L34.336,44.64 C35.536,46.8 36.16,48.192 36.832,50.208 L33.616,50.208 C32.32,47.568 31.456,46.08 29.968,43.824 L22.912,45.264 C24.352,47.424 25.024,48.576 25.792,50.208 L24.592,50.208 Z M44.464,75.984 L55.12,75.984 C57.952,75.984 60.448,76.08 61.984,76.272 L61.984,68.976 C60.448,69.168 57.808,69.312 55.216,69.312 L46.336,69.312 C49.12,67.152 51.28,65.328 53.056,63.6 C53.776,62.928 53.968,62.736 54.496,62.304 L50.992,58.32 C50.08,58.464 49.12,58.512 47.2,58.512 L32.848,58.512 C30.544,58.512 29.296,58.464 27.712,58.32 L27.712,64.8 C29.2,64.656 30.496,64.608 32.8,64.608 L42.736,64.608 C41.488,65.76 40.672,66.336 39.472,67.056 L36.832,67.056 C36.928,67.632 36.976,68.448 36.976,69.312 L25.168,69.312 C22.768,69.312 20.512,69.216 18.64,68.976 L18.64,76.272 C20.272,76.08 22.528,75.984 25.264,75.984 L36.976,75.984 L36.976,80.544 C36.976,81.408 36.64,81.552 34.72,81.552 C33.376,81.552 31.552,81.408 28.912,81.168 C30.064,83.904 30.544,85.488 31.024,88.224 C33.28,88.32 34.576,88.368 35.392,88.368 C42.832,88.368 44.464,87.312 44.464,82.656 L44.464,75.984 Z M104.32,54.96 C106.672,54.96 108.304,55.056 110.08,55.248 L110.08,47.856 C108.496,48.048 106.864,48.144 104.368,48.144 L99.568,48.144 L99.568,46.608 C99.568,45.168 99.616,44.352 99.76,43.392 L91.936,43.392 C92.128,44.496 92.176,45.264 92.176,46.752 L92.176,48.144 L88.72,48.144 C86.224,48.144 84.544,48.048 83.056,47.856 L83.056,55.248 C84.544,55.056 85.744,55.008 88,54.96 C86.32,58.8 84.592,61.344 81.904,63.696 C80.176,61.68 79.168,60.048 78.448,57.984 L79.744,57.984 C80.656,57.984 81.328,58.032 82.24,58.176 L82.24,51.168 C81.28,51.312 80.704,51.36 79.6,51.36 L78.4,51.36 L78.4,48.24 C78.4,46.128 78.448,44.544 78.64,43.248 L71.056,43.248 C71.248,44.688 71.344,46.032 71.344,48.24 L71.344,51.36 L69.856,51.36 C68.272,51.36 67.168,51.312 66.016,51.12 L66.016,58.224 C67.408,58.032 68.272,57.984 69.856,57.984 L70.816,57.984 C69.616,63.264 67.6,67.68 64.768,71.04 C66.16,73.92 66.832,75.792 67.744,79.104 C69.376,76.896 70.288,75.024 71.488,71.376 C71.44,72.768 71.392,74.352 71.392,76.08 L71.392,82.368 C71.392,84.816 71.248,87.072 71.056,88.56 L78.688,88.56 C78.448,86.832 78.4,84.864 78.4,82.368 L78.4,72.72 C78.4,71.76 78.352,70.368 78.256,67.68 C79.12,69.6 79.648,70.512 80.656,71.856 C81.328,69.504 81.712,68.4 82.528,66.576 C83.68,67.92 84.304,68.88 85.216,70.512 C86.176,69.6 86.464,69.264 87.184,68.496 C88.48,71.472 89.392,73.152 91.168,75.744 C87.856,78.768 85.312,80.16 80.032,81.936 C82,84.288 82.864,85.776 84.16,88.608 C89.248,86.4 92.464,84.336 95.728,81.072 C99.184,84.336 102.304,86.304 107.632,88.512 C108.736,85.296 109.648,83.376 111.184,80.976 C106.48,79.584 103.504,78.096 100.432,75.6 C102.16,73.152 103.36,71.04 104.608,68.16 C105.328,68.784 105.856,69.264 107.056,70.272 C108.496,67.296 109.312,66 110.992,63.888 C108.4,61.872 107.056,60.48 105.184,58.08 C104.368,56.976 103.984,56.4 103.216,54.96 L104.32,54.96 Z M88.864,66.576 C91.072,63.888 92.464,61.68 94.672,57.36 L90.016,54.96 L101.056,54.96 L97.024,57.312 C99.088,61.584 100.624,63.936 103.12,66.672 L98.464,64.368 C97.552,67.104 97.024,68.304 95.728,70.368 C94.336,68.256 93.808,67.2 92.8,64.56 L88.864,66.576 Z" id="学校-2" fill="#E0A845"></path>
                </g>
            </g>
        </g>
    </g>
</svg>