<?xml version="1.0" encoding="UTF-8" standalone="no"?>
<svg width="128px" height="128px" viewBox="0 0 128 128" version="1.1" xmlns="http://www.w3.org/2000/svg" xmlns:xlink="http://www.w3.org/1999/xlink" xmlns:sketch="http://www.bohemiancoding.com/sketch/ns">
    <!-- Generator: Sketch 3.1.1 (8761) - http://www.bohemiancoding.com/sketch -->
    <title>simple_ico</title>
    <desc>Created with Sketch.</desc>
    <defs></defs>
    <g id="Page-1" stroke="none" stroke-width="1" fill="none" fill-rule="evenodd" sketch:type="MSPage">
        <g id="Mobile-Portrait" sketch:type="MSArtboardGroup" transform="translate(-96.000000, -819.000000)">
            <g id="簡単" sketch:type="MSLayerGroup" transform="translate(33.000000, 819.000000)">
                <g id="simple" transform="translate(63.000000, 0.000000)" sketch:type="MSShapeGroup">
                    <circle id="Oval-3" fill="#B2E0E2" cx="64" cy="64" r="64"></circle>
                    <path d="M37.216,51.36 C38.032,51.36 38.896,51.408 39.616,51.456 C40.624,52.224 41.008,52.56 42.112,53.472 C41.296,53.424 41.248,53.424 40.768,53.376 C40.912,54.672 40.96,55.728 40.96,57.552 L40.96,63.552 C40.96,65.424 40.912,66.48 40.768,67.728 C42.016,67.632 43.312,67.584 45.616,67.584 L53.536,67.584 L53.536,80.4 C53.536,81.36 53.344,81.504 52,81.504 C51.472,81.504 50.944,81.504 50.128,81.456 L50.128,72.816 C50.128,71.04 50.176,69.792 50.272,68.784 C49.12,68.88 47.872,68.928 46.096,68.928 L33.76,68.928 C32.08,68.928 30.736,68.88 29.632,68.784 C29.728,69.984 29.776,71.184 29.776,72.816 L29.776,82.656 C29.776,84.384 29.728,85.488 29.584,86.784 L36.352,86.784 L36.352,84.672 L46.096,84.672 C46.72,84.672 47.248,84.672 48.304,84.72 C48.544,85.92 48.64,86.448 48.784,88.128 C49.6,88.176 50.224,88.176 50.464,88.176 C55.264,88.176 56.656,88.08 58.048,87.552 C59.68,86.928 60.592,85.104 60.592,82.368 L60.592,58.992 C60.592,56.4 60.64,54.672 60.784,53.328 C59.776,53.472 58.576,53.52 56.32,53.52 C55.888,52.8 55.744,52.512 55.072,51.408 L57.04,51.408 C59.296,51.408 60.688,51.456 62.08,51.648 L62.08,45.216 C60.544,45.408 59.488,45.456 56.656,45.456 L49.36,45.456 C49.696,44.688 49.696,44.688 50.128,43.728 L42.928,42.672 C42.448,44.976 41.68,46.608 40.096,48.624 L40.096,45.168 C38.944,45.36 37.744,45.456 35.488,45.456 L30.208,45.456 C30.64,44.496 30.64,44.496 31.024,43.728 L23.872,42.672 C22.768,46.08 20.656,48.72 16.864,51.312 C18.112,52.512 18.544,52.992 19.504,54.288 C19.6,55.728 19.648,57.072 19.648,58.992 L19.648,81.888 C19.648,85.2 19.552,86.832 19.36,88.368 L26.944,88.368 C26.752,87.024 26.704,85.68 26.704,82.416 L26.704,67.584 L34.144,67.584 C36.4,67.584 37.84,67.632 39.04,67.728 C38.896,66.528 38.848,65.52 38.848,63.552 L38.848,57.552 C38.848,55.584 38.896,54.576 39.04,53.376 C38.32,53.424 37.456,53.472 36.064,53.52 C35.68,52.704 35.44,52.32 34.912,51.36 L37.216,51.36 Z M24.784,53.52 C25.504,52.704 25.888,52.272 26.56,51.36 L28.24,51.36 C28.72,52.368 28.864,52.656 29.2,53.52 L24.784,53.52 Z M45.472,53.52 L44.464,53.52 C45.136,52.752 45.472,52.272 46.048,51.408 L48.064,51.408 C48.496,52.176 48.832,52.8 49.216,53.52 L45.472,53.52 Z M36.352,73.2 L43.552,73.2 L43.552,74.736 L36.352,74.736 L36.352,73.2 Z M36.352,78.624 L43.552,78.624 L43.552,80.16 L36.352,80.16 L36.352,78.624 Z M26.704,57.744 L32.176,57.744 L32.176,59.088 L26.704,59.088 L26.704,57.744 Z M26.704,62.448 L32.176,62.448 L32.176,63.792 L26.704,63.792 L26.704,62.448 Z M47.728,57.744 L53.536,57.744 L53.536,59.088 L47.728,59.088 L47.728,57.744 Z M47.728,62.448 L53.536,62.448 L53.536,63.792 L47.728,63.792 L47.728,62.448 Z M84.064,72.624 L84.064,74.64 L71.536,74.64 C68.848,74.64 67.408,74.592 65.824,74.4 L65.824,81.6 C67.36,81.408 69.52,81.312 72.256,81.312 L84.064,81.312 L84.064,83.232 C84.064,85.728 84.016,86.832 83.776,88.464 L91.648,88.464 C91.408,86.736 91.36,85.824 91.36,83.232 L91.36,81.312 L103.504,81.312 C106.24,81.312 108.592,81.408 110.032,81.6 L110.032,74.4 C108.64,74.592 107.152,74.64 104.368,74.64 L91.36,74.64 L91.36,72.624 L101.104,72.624 C103.312,72.624 105.04,72.672 106.624,72.768 C106.432,71.136 106.384,69.936 106.384,67.632 L106.384,56.592 C106.384,53.904 106.432,52.512 106.624,51.216 C105.424,51.36 104.176,51.408 102.496,51.408 C103.84,49.632 104.896,48 106.384,45.504 L98.848,43.2 C97.6,46.176 96.304,48.528 94.384,51.408 L86.56,51.408 L92.704,49.776 C91.408,46.608 90.784,45.408 89.2,42.816 L82,44.4 C83.872,47.616 84.496,49.008 85.312,51.408 L75.904,51.408 L80.56,49.776 C79.264,47.328 78.304,45.936 76.288,43.392 L69.28,45.696 C71.056,47.952 72.112,49.584 73.024,51.408 C71.392,51.36 70.432,51.312 69.328,51.216 C69.52,52.704 69.568,54.048 69.568,56.592 L69.568,67.68 C69.568,69.84 69.52,71.088 69.328,72.768 C70.96,72.672 72.496,72.624 74.8,72.624 L84.064,72.624 Z M91.36,59.376 L91.36,57.36 L99.136,57.36 L99.136,59.376 L91.36,59.376 Z M84.064,59.376 L76.816,59.376 L76.816,57.36 L84.064,57.36 L84.064,59.376 Z M91.36,66.768 L91.36,64.704 L99.136,64.704 L99.136,66.768 L91.36,66.768 Z M84.064,66.768 L76.816,66.768 L76.816,64.704 L84.064,64.704 L84.064,66.768 Z" id="簡単-2" fill="#4FA1A5"></path>
                </g>
            </g>
        </g>
    </g>
</svg>