<?xml version="1.0" encoding="UTF-8" standalone="no"?>
<svg width="128px" height="128px" viewBox="0 0 128 128" version="1.1" xmlns="http://www.w3.org/2000/svg" xmlns:xlink="http://www.w3.org/1999/xlink" xmlns:sketch="http://www.bohemiancoding.com/sketch/ns">
    <!-- Generator: Sketch 3.1.1 (8761) - http://www.bohemiancoding.com/sketch -->
    <title>Community icon 3_ico</title>
    <desc>Created with Sketch.</desc>
    <defs></defs>
    <g id="Page-1" stroke="none" stroke-width="1" fill="none" fill-rule="evenodd" sketch:type="MSPage">
        <g id="Mobile-Portrait" sketch:type="MSArtboardGroup" transform="translate(-97.000000, -4810.000000)">
            <g id="3-points-2" sketch:type="MSLayerGroup" transform="translate(23.000000, 4446.000000)">
                <g id="簡単" transform="translate(10.000000, 364.000000)" sketch:type="MSShapeGroup">
                    <g id="Community-icon-3" transform="translate(64.000000, 0.000000)">
                        <circle id="Oval-3" fill="#B2E0E2" cx="64" cy="64" r="64"></circle>
                        <circle id="Oval-3" fill="#6DD0E5" cx="64.3878788" cy="64.3878788" r="49.6484848"></circle>
                        <path d="M83.0550004,78.4702755 C82.5323667,76.8754938 81.5858883,75.2952446 80.1901178,74.3586965 C77.5030075,72.5447071 74.3720066,71.5897188 71.3453163,70.5540083 C70.6150215,70.2935236 69.8732033,70.0172853 69.2062872,69.6135524 C68.6098318,69.2529282 68.3868062,68.5181245 68.2485255,67.8696606 C68.1876676,67.5257671 68.1496164,67.176256 68.1307709,66.8293095 C70.3252563,63.7746901 71.7814046,58.7901882 71.7814046,54.7026671 C71.7814046,48.3230518 68.2384425,46.5454545 63.8679571,46.5454545 C59.4977117,46.5454545 55.9549897,48.32122 55.9549897,54.7002247 C55.9549897,58.9341692 57.5161689,64.1284754 59.8435334,67.1458478 C59.821807,67.3836179 59.7943189,67.622365 59.7523066,67.8592803 C59.6131856,68.5068894 59.39004,69.2330225 58.795025,69.5926696 C58.1266684,69.9966468 57.3847302,70.2520024 56.6545554,70.512487 C53.6278652,71.5491745 50.4971044,72.4621532 47.8107143,74.2771195 C46.4139834,75.2126906 45.4676251,76.8754938 44.9458316,78.4702755 C44.4080735,80.1251409 44.1882888,82.1942416 44.2214186,83.7818182 L63.9998759,83.7818182 L83.7784532,83.7818182 C83.8123032,82.1942416 83.5921584,80.1250188 83.0550004,78.4702755 Z M88.6648133,69.735368 C88.2718295,68.5368519 87.5594484,67.3636695 86.5090024,66.6604454 C84.4868759,65.2964649 82.1308998,64.5865096 79.8534482,63.8080188 C79.3038971,63.6124476 78.745795,63.408187 78.2436958,63.1047947 C77.7949499,62.8339567 77.6269412,62.2829796 77.5232455,61.7955202 C77.4772388,61.5375327 77.4486954,61.275384 77.4346043,61.0149488 C79.0860277,58.7188843 80.1816373,54.9729249 80.1816373,51.9008172 C80.1816373,47.1057738 77.5155376,45.769697 74.2269023,45.769697 C72.9761706,45.769697 71.8170911,45.9647786 70.8586585,46.4680256 C73.0391589,48.1707678 74.1943844,50.9575962 74.1943844,54.712612 C74.1943844,59.0399001 72.7658887,64.022682 70.5939394,67.4006298 C70.5998408,67.4389363 70.6056217,67.4763861 70.6123662,67.5138359 C70.6695734,67.7758621 70.7164232,67.9126885 70.7455688,67.9806122 C71.2218946,68.2504711 71.7917995,68.4621971 72.4284261,68.6897107 L73.3821616,69.0126847 C76.2018177,69.9639831 79.1174616,70.9368213 81.7438173,72.7074872 C82.1682351,72.9920322 82.5690473,73.2074298 82.9446883,73.6969697 L89.2096674,73.6969697 C89.2347182,72.7180123 89.0689978,70.9791665 88.6648133,69.735368 Z M47.0647064,72.634428 C49.633178,70.907094 52.4850613,69.9602056 55.2431589,69.0385283 C55.6394519,68.9065979 56.0352614,68.7769928 56.4291373,68.6421251 L56.5098703,68.6150782 C57.092647,68.4083709 57.6450884,68.2131677 58.0972177,67.9609333 C58.1176426,67.9127139 58.1468903,67.8325521 58.1818182,67.6996426 C55.9111404,64.3428821 54.3682688,59.1547609 54.3682688,54.7102475 C54.3682688,50.9399501 55.5384147,48.1468924 57.7451587,46.4461158 C56.7911066,45.9576795 55.6402979,45.769697 54.4018672,45.769697 C51.1016012,45.769697 48.4264121,47.1049112 48.4264121,51.8989545 C48.4264121,55.0818067 49.6053807,58.985748 51.3627751,61.2527974 C51.3464593,61.4319682 51.3255509,61.6115062 51.2937652,61.7898203 C51.1889815,62.276788 51.0205056,62.8223778 50.5709143,63.092725 C50.0664535,63.3959937 49.5061564,63.5885044 48.9548028,63.7840748 C46.6691386,64.5630517 44.3051585,65.2496284 42.2764382,66.6137254 C41.2217115,67.316824 40.5071998,68.5367521 40.1130822,69.735263 C39.7071206,70.979056 39.5410619,72.7178942 39.5660795,73.6969697 L45.7993245,73.6969697 C46.1947714,73.2073095 46.616082,72.9329236 47.0647064,72.634428 Z" id="Shape" fill="#FFFFFF"></path>
                    </g>
                </g>
            </g>
        </g>
    </g>
</svg>