<?xml version="1.0" encoding="UTF-8" standalone="no"?>
<svg width="46px" height="32px" viewBox="0 0 46 32" version="1.1" xmlns="http://www.w3.org/2000/svg" xmlns:xlink="http://www.w3.org/1999/xlink" xmlns:sketch="http://www.bohemiancoding.com/sketch/ns">
    <!-- Generator: Sketch 3.1.1 (8761) - http://www.bohemiancoding.com/sketch -->
    <title>Swedish flag 2_ico</title>
    <desc>Created with Sketch.</desc>
    <defs></defs>
    <g id="Page-1" stroke="none" stroke-width="1" fill="none" fill-rule="evenodd" sketch:type="MSPage">
        <g id="Mobile-Portrait" sketch:type="MSArtboardGroup" transform="translate(-197.000000, -7884.000000)">
            <g id="Our-team" sketch:type="MSLayerGroup" transform="translate(-187.000000, 7625.000000)">
                <g id="1st-row" transform="translate(224.000000, 150.000000)" sketch:type="MSShapeGroup">
                    <g id="John" transform="translate(120.000000, 0.000000)">
                        <g id="img">
                            <g id="Swedish-flag-2" transform="translate(40.500000, 109.586667)">
                                <path d="M4.09114286,0 L40.9095,0 C43.1691429,0 45.0006429,1.89297872 45.0006429,4.22721277 L45.0006429,26.7727872 C45.0006429,29.1076809 43.1691429,31 40.9095,31 L4.09114286,31 C1.8315,31 0,29.1076809 0,26.7727872 L0,4.22721277 C0,1.89297872 1.8315,0 4.09114286,0 L4.09114286,0 Z" id="Shape" fill="#4A89DC"></path>
                                <path d="M0,18.4680851 L0,13.1914894 L45,13.1914894 L45,18.4680851 L0,18.4680851 L0,18.4680851 Z" id="Path" fill="#FFCE54"></path>
                                <path d="M10.2857143,0 L15.4285714,0 L15.4285714,31 L10.2857143,31 L10.2857143,0 L10.2857143,0 Z" id="Path" fill="#FFCE54"></path>
                            </g>
                        </g>
                    </g>
                </g>
            </g>
        </g>
    </g>
</svg>